<?xml version="1.0"?>
<svg xmlns="http://www.w3.org/2000/svg" version="1.1" width="500px" height="500px" viewBox="0 0 200 200" style="overflow:hidden!important;">
  <defs id="SvgjsDefs1007">
    <radialGradient id="SvgjsRadialGradient2907" cx="100" cy="114" r="41" gradientUnits="userSpaceOnUse" class="svga-on-canvas-facehighlight-gradient-single-0">
      <stop id="SvgjsStop2908" stop-opacity="0.5" stop-color="#ffe2d6" offset="0"/>
      <stop id="SvgjsStop2909" stop-opacity="0" stop-color="#ffd0bc" offset="0.9"/>
    </radialGradient>
    <radialGradient id="SvgjsRadialGradient2911" cx="100" cy="54" r="37" gradientUnits="userSpaceOnUse" class="svga-on-canvas-facehighlight-gradient-single-1">
      <stop id="SvgjsStop2912" stop-opacity="0.5" stop-color="#ffe2d6" offset="0"/>
      <stop id="SvgjsStop2913" stop-opacity="0" stop-color="#ffd0bc" offset="0.9"/>
    </radialGradient>
    <linearGradient id="SvgjsLinearGradient3212" x1="100" y1="141" x2="100" y2="138" gradientUnits="userSpaceOnUse" class="svga-on-canvas-mouth-gradient-single-0">
      <stop id="SvgjsStop3213" stop-opacity="1" stop-color="#f7c1aa" offset="0.1"/>
      <stop id="SvgjsStop3214" stop-opacity="1" stop-color="#f0b399" offset="1"/>
    </linearGradient>
    <linearGradient id="SvgjsLinearGradient3268" x1="100" y1="171" x2="100" y2="131" gradientUnits="userSpaceOnUse" class="svga-on-canvas-chinshadow-gradient-single-0">
      <stop id="SvgjsStop3269" stop-opacity="0.8" stop-color="#f0b399" offset="0"/>
      <stop id="SvgjsStop3270" stop-opacity="1" stop-color="#d17f5b" offset="0.7"/>
    </linearGradient>
    <radialGradient id="SvgjsRadialGradient4173" cx="-582.838" cy="-519.099" r="59.745" gradientTransform="matrix(0.0991 8.856319e-004 -0.0011 0.0991 131.1134 135.9855)" gradientUnits="userSpaceOnUse" class="svga-on-canvas-eyesiris-gradient-left-2">
      <stop id="SvgjsStop4174" stop-opacity="1" stop-color="#ffffff" offset="0"/>
      <stop id="SvgjsStop4175" stop-opacity="0" stop-color="#ffffff" offset="1"/>
    </radialGradient>
    <linearGradient id="SvgjsLinearGradient4179" x1="122.67" y1="88.268" x2="123.606" y2="87.152" gradientTransform="matrix(1 0 0 1 -52 0)" gradientUnits="userSpaceOnUse" class="svga-on-canvas-eyesiris-gradient-left-5">
      <stop id="SvgjsStop4180" stop-opacity="1" stop-color="#ffffff" offset="0"/>
      <stop id="SvgjsStop4181" stop-opacity="0" stop-color="#ffffff" offset="1"/>
    </linearGradient>
    <linearGradient id="SvgjsLinearGradient4187" x1="129.636" y1="79.822" x2="127.91" y2="81.879" gradientTransform="matrix(1 0 0 1 -52 0)" gradientUnits="userSpaceOnUse" class="svga-on-canvas-eyesiris-gradient-left-7">
      <stop id="SvgjsStop4188" stop-opacity="1" stop-color="#ffffff" offset="0"/>
      <stop id="SvgjsStop4189" stop-opacity="0" stop-color="#ffffff" offset="1"/>
    </linearGradient>
    <radialGradient id="SvgjsRadialGradient4196" cx="-582.833" cy="-519.102" r="59.747" gradientTransform="matrix(0.0991 8.856319e-004 -0.0011 0.0991 183.1126 135.9856)" gradientUnits="userSpaceOnUse" class="svga-on-canvas-eyesiris-gradient-right-2">
      <stop id="SvgjsStop4197" stop-opacity="1" stop-color="#ffffff" offset="0"/>
      <stop id="SvgjsStop4198" stop-opacity="0" stop-color="#ffffff" offset="1"/>
    </radialGradient>
    <linearGradient id="SvgjsLinearGradient4202" x1="122.67" y1="88.268" x2="123.606" y2="87.152" gradientUnits="userSpaceOnUse" class="svga-on-canvas-eyesiris-gradient-right-5">
      <stop id="SvgjsStop4203" stop-opacity="1" stop-color="#ffffff" offset="0"/>
      <stop id="SvgjsStop4204" stop-opacity="0" stop-color="#ffffff" offset="1"/>
    </linearGradient>
    <linearGradient id="SvgjsLinearGradient4210" x1="129.636" y1="79.822" x2="127.91" y2="81.879" gradientUnits="userSpaceOnUse" class="svga-on-canvas-eyesiris-gradient-right-7">
      <stop id="SvgjsStop4211" stop-opacity="1" stop-color="#ffffff" offset="0"/>
      <stop id="SvgjsStop4212" stop-opacity="0" stop-color="#ffffff" offset="1"/>
    </linearGradient>
    <linearGradient id="SvgjsLinearGradient4220" x1="132" y1="78" x2="126" y2="84" gradientTransform="matrix(1 0 0 1 -50 0)" gradientUnits="userSpaceOnUse" class="svga-on-canvas-eyesiris-gradient-left-6">
      <stop id="SvgjsStop4221" stop-opacity="1" stop-color="#ffffff" offset="0"/>
      <stop id="SvgjsStop4222" stop-opacity="0" stop-color="#ffffff" offset="1"/>
    </linearGradient>
    <linearGradient id="SvgjsLinearGradient4230" x1="132" y1="78" x2="126" y2="84" gradientUnits="userSpaceOnUse" class="svga-on-canvas-eyesiris-gradient-right-6">
      <stop id="SvgjsStop4231" stop-opacity="1" stop-color="#ffffff" offset="0"/>
      <stop id="SvgjsStop4232" stop-opacity="0" stop-color="#ffffff" offset="1"/>
    </linearGradient>
    <linearGradient id="SvgjsLinearGradient4259" x1="127.637" y1="79.822" x2="125.91" y2="81.88" gradientTransform="matrix(1 0 0 1 -50 0)" gradientUnits="userSpaceOnUse" class="svga-on-canvas-eyesiris-gradient-left-1">
      <stop id="SvgjsStop4260" stop-opacity="1" stop-color="#ffffff" offset="0"/>
      <stop id="SvgjsStop4261" stop-opacity="0" stop-color="#ffffff" offset="1"/>
    </linearGradient>
    <linearGradient id="SvgjsLinearGradient4264" x1="129.637" y1="79.823" x2="127.91" y2="81.881" gradientUnits="userSpaceOnUse" class="svga-on-canvas-eyesiris-gradient-right-1">
      <stop id="SvgjsStop4265" stop-opacity="1" stop-color="#ffffff" offset="0"/>
      <stop id="SvgjsStop4266" stop-opacity="0" stop-color="#ffffff" offset="1"/>
    </linearGradient>
    <radialGradient id="SvgjsRadialGradient4313" cx="129.041" cy="83.945" r="15.117" gradientTransform="matrix(-0.9945 0.1042 0.1042 0.9945 192.8281 -12.4633)" gradientUnits="userSpaceOnUse" class="svga-on-canvas-eyesback-gradient-left-0">
      <stop id="SvgjsStop4314" stop-opacity="1" stop-color="#ffffff" offset="0"/>
      <stop id="SvgjsStop4315" stop-opacity="1" stop-color="#fcfdfd" offset="0.315"/>
      <stop id="SvgjsStop4316" stop-opacity="1" stop-color="#f4f7f8" offset="0.504"/>
      <stop id="SvgjsStop4317" stop-opacity="1" stop-color="#e5ecef" offset="0.66"/>
      <stop id="SvgjsStop4318" stop-opacity="1" stop-color="#d8e2e7" offset="0.76"/>
    </radialGradient>
    <radialGradient id="SvgjsRadialGradient4320" cx="128.643" cy="83.986" r="15.116" gradientTransform="matrix(0.9945 0.1042 -0.1042 0.9945 7.1738 -12.4633)" gradientUnits="userSpaceOnUse" class="svga-on-canvas-eyesback-gradient-right-0">
      <stop id="SvgjsStop4321" stop-opacity="1" stop-color="#ffffff" offset="0"/>
      <stop id="SvgjsStop4322" stop-opacity="1" stop-color="#fcfdfd" offset="0.316"/>
      <stop id="SvgjsStop4323" stop-opacity="1" stop-color="#f4f7f8" offset="0.505"/>
      <stop id="SvgjsStop4324" stop-opacity="1" stop-color="#e5ecef" offset="0.661"/>
      <stop id="SvgjsStop4325" stop-opacity="1" stop-color="#d8e2e7" offset="0.76"/>
    </radialGradient>
    <radialGradient id="SvgjsRadialGradient4327" cx="129.041" cy="83.945" r="15.117" gradientTransform="matrix(-0.9945 0.1042 0.1042 0.9945 192.8281 -12.4633)" gradientUnits="userSpaceOnUse" class="svga-on-canvas-eyesfront-gradient-left-0">
      <stop id="SvgjsStop4328" stop-opacity="1" stop-color="#ffffff" offset="0"/>
      <stop id="SvgjsStop4329" stop-opacity="1" stop-color="#fcfdfd" offset="0.316"/>
      <stop id="SvgjsStop4330" stop-opacity="1" stop-color="#f4f7f8" offset="0.505"/>
      <stop id="SvgjsStop4331" stop-opacity="1" stop-color="#e5ecef" offset="0.661"/>
      <stop id="SvgjsStop4332" stop-opacity="1" stop-color="#d8e2e7" offset="0.76"/>
    </radialGradient>
    <radialGradient id="SvgjsRadialGradient4336" cx="121.986" cy="82.496" fx="133.239" fy="82.527" r="16.003" gradientTransform="matrix(0.9998 0.0208 0.0166 -0.7998 -45.3195 145.9395)" gradientUnits="userSpaceOnUse" class="svga-on-canvas-eyesfront-gradient-left-3">
      <stop id="SvgjsStop4337" stop-opacity="1" stop-color="#f0b399" offset="0"/>
      <stop id="SvgjsStop4338" stop-opacity="0.3" stop-color="#f0b399" offset="0.7"/>
      <stop id="SvgjsStop4339" stop-opacity="0" stop-color="#ffd0bc" offset="1"/>
    </radialGradient>
    <radialGradient id="SvgjsRadialGradient4341" cx="68.931" cy="105.995" r="29.524" gradientTransform="matrix(1.0336 0 0 1.0336 -1.6796 1.3127)" gradientUnits="userSpaceOnUse" class="svga-on-canvas-eyesfront-gradient-left-4">
      <stop id="SvgjsStop4342" stop-opacity="0" stop-color="#000000" offset="0.95"/>
      <stop id="SvgjsStop4343" stop-opacity="0.2" stop-color="#000000" offset="1"/>
    </radialGradient>
    <radialGradient id="SvgjsRadialGradient4347" cx="128.643" cy="83.986" r="15.116" gradientTransform="matrix(0.9945 0.1042 -0.1042 0.9945 7.1738 -12.4633)" gradientUnits="userSpaceOnUse" class="svga-on-canvas-eyesfront-gradient-right-0">
      <stop id="SvgjsStop4348" stop-opacity="1" stop-color="#ffffff" offset="0"/>
      <stop id="SvgjsStop4349" stop-opacity="1" stop-color="#fcfdfd" offset="0.316"/>
      <stop id="SvgjsStop4350" stop-opacity="1" stop-color="#f4f7f8" offset="0.505"/>
      <stop id="SvgjsStop4351" stop-opacity="1" stop-color="#e5ecef" offset="0.661"/>
      <stop id="SvgjsStop4352" stop-opacity="1" stop-color="#d8e2e7" offset="0.76"/>
    </radialGradient>
    <radialGradient id="SvgjsRadialGradient4356" cx="121.587" cy="82.496" fx="132.839" fy="82.527" r="16.003" gradientTransform="matrix(-0.9998 0.0208 -0.0166 -0.7998 244.5208 145.9478)" gradientUnits="userSpaceOnUse" class="svga-on-canvas-eyesfront-gradient-right-3">
      <stop id="SvgjsStop4357" stop-opacity="1" stop-color="#f0b399" offset="0"/>
      <stop id="SvgjsStop4358" stop-opacity="0.3" stop-color="#f0b399" offset="0.7"/>
      <stop id="SvgjsStop4359" stop-opacity="0" stop-color="#ffd0bc" offset="1"/>
    </radialGradient>
    <radialGradient id="SvgjsRadialGradient4361" cx="69.316" cy="105.995" r="29.524" gradientTransform="matrix(-1.0336 0 0 1.0336 201.6796 1.3127)" gradientUnits="userSpaceOnUse" class="svga-on-canvas-eyesfront-gradient-right-4">
      <stop id="SvgjsStop4362" stop-opacity="0" stop-color="#000000" offset="0.95"/>
      <stop id="SvgjsStop4363" stop-opacity="0.2" stop-color="#000000" offset="1"/>
    </radialGradient>
  </defs>
  <g id="svga-group-wrapper">
    <g id="svga-group-backs-single"/>
    <g id="svga-group-humanwrap-move" transform="matrix(1,0,0,1,0,0)">
      <g id="svga-group-humanwrap" transform="matrix(1,0,0,1,0,0)">
        <g id="svga-group-hair-back-move" transform="matrix(1,0,0,1,0,0)">
          <g id="svga-group-hair-back" transform="matrix(1,0,0,1,0,0)">
            <path id="SvgjsPath4392" d="M100.5,100.5h-1v-1h1V100.5z" fill="#2a232b" stroke-width="none" opacity="1"/>
          </g>
        </g>
        <g id="svga-group-humanbody-single">
          <path id="SvgjsPath2914" d="M195.417 199.778c-2.196-4.746-8.195-11.779-14.86-13.722 -8.239-2.403-26.837-5.308-33.733-6.923 -5.528-1.296-16.662-11.294-20.564-14.65 -0.7-0.6-1.273-1.839-1.287-2.76 -0.139-10.864 4.195-39.724 4.195-39.724H100 70.833c0 0 4.334 28.859 4.193 39.724 -0.011 0.921-0.587 2.16-1.285 2.76 -3.902 3.356-15.036 13.354-20.564 14.65 -6.897 1.615-25.495 4.619-33.733 7.022 -6.667 1.942-12.664 8.876-14.86 13.622 -3.708 8.008-4.584 22.5-4.584 35h100 100C200 222.278 199.123 207.786 195.417 199.778z" fill="#ffd0bc" stroke-width="none" opacity="1" stroke="none"/>
          <path id="SvgjsPath2915" d="M159.156 184.058c24.342 3.542 34.586 8.708 37.794 50.721H200c0-12.5-0.877-26.992-4.583-35 -2.196-4.746-8.195-11.779-14.86-13.722 -8.239-2.403-26.837-5.308-33.733-6.923 -5.528-1.296-18.242-12.069-21.643-16.35 3.36 4.704 12.791 15.605 21.054 18.46C150.188 182.61 153.48 183.232 159.156 184.058zM53.766 181.244c8.263-2.854 17.693-13.756 21.054-18.46 -3.4 4.28-16.114 15.054-21.643 16.35 -6.896 1.615-25.494 4.619-33.733 7.022 -6.665 1.942-12.664 8.876-14.86 13.622 -3.706 8.008-4.583 22.5-4.583 35h3.05c3.188-41.744 13.475-47.183 37.794-50.721C46.52 183.232 49.813 182.61 53.766 181.244z" fill="#ffe2d6" stroke-width="none" opacity="1" stroke="none"/>
          <path id="SvgjsPath2916" d="M95.646 197.62c0 0-5.074-1.609-7.083-2.379 -10.449-4.009-44.395-6.607-44.395-6.607s35.754 1.419 43.644 2.779c-0.458-4.767-3.017-20.004-3.017-20.004s5.149 16.815 6.409 21.057C91.878 194.734 95.646 197.62 95.646 197.62zM106.445 196.278c-0.089 0.073-0.191 0.168-0.302 0.268C106.256 196.461 106.358 196.372 106.445 196.278zM95.646 197.62c0 0 2.893 2.992 4.347 3.03 1.91 0.051 4.828-2.899 6.151-4.104 -1.265 0.957-4.159 1.391-5.31 1.436C99.504 198.033 95.646 197.62 95.646 197.62zM116.664 190.101c-1.545 0.248-4.386 0.789-4.386 0.789l2.287-14.89c-0.646 3.071-4.474 16.211-8.12 20.278 1.91-1.616 6.158-2.391 8.324-2.704 10.236-1.484 10.232-1.483 41.062-4.94C155.831 188.634 126.76 188.479 116.664 190.101z" fill="#f0b399" stroke-width="none" opacity="1" stroke="none"/>
          <path id="SvgjsPath2917" d="M195.417 199.778c-2.196-4.746-8.195-11.779-14.86-13.722 -8.239-2.403-26.837-5.308-33.733-6.923 -5.528-1.296-16.662-11.294-20.564-14.65 -0.7-0.6-1.273-1.839-1.287-2.76 -0.139-10.864 4.195-39.724 4.195-39.724H100 70.833c0 0 4.334 28.859 4.193 39.724 -0.011 0.921-0.587 2.16-1.285 2.76 -3.902 3.356-15.036 13.354-20.564 14.65 -6.897 1.615-25.495 4.619-33.733 7.022 -6.667 1.942-12.664 8.876-14.86 13.622 -3.708 8.008-4.584 22.5-4.584 35h100 100C200 222.278 199.123 207.786 195.417 199.778z" fill="none" stroke="#d17f5b" stroke-width="1.5" opacity="1"/>
        </g>
        <g id="svga-group-chinshadow-single">
          <path id="SvgjsPath3267" d="M100.021 171.866c8.183 0 16.871-4.943 24.199-10.675 -0.001-6.702 1.451-19.105 2.652-28.205 -15.382-2.247-38.406-2.279-53.766-0.152 1.184 8.96 2.625 21.206 2.671 28.02C83.119 166.767 91.822 171.866 100.021 171.866z" fill="url(#SvgjsLinearGradient3268)" opacity="1"/>
        </g>
        <g id="svga-group-clothes-single">
          <path id="SvgjsPath4403" d="M42.77 235.757l1.323-60.852c0 0 10.194-2.487 16.635-6.313 17.496 21.953 69.451 17.333 78.336-0.62 1.489 0.525 2.721 1.197 4.262 1.713 5 3.386 9.213 4.494 9.213 4.494l0.935 61.685C139.188 236.052 42.77 235.757 42.77 235.757z" fill="#f5f4f5" stroke-width="none" opacity="1"/>
          <path id="SvgjsPath4404" d="M154.014 177.705c-4.236-0.719-7.611-1.697-9.452-3.544 -5.343 10.025-26.763 16.378-33.855 17.309 20.554-6.276 29.188-10.813 32.598-21.583 1.99 2.383 6.522 3.549 12.313 4.538L154.014 177.705zM52.67 174.381c1.454-0.312 2.18-1.234 3.623-1.593l-1.528-1.867c-3.114 2.234-8.971 3.305-15.9 4.424l0.188 3.738c3.956-0.79 7.817-1.788 11.429-3.323 7.483 8.485 19.168 12.659 31.06 14.387C66.624 186.562 58.07 180.511 52.67 174.381z" fill="#ffffff" stroke-width="none" opacity="1"/>
          <path id="SvgjsPath4405" d="M137.861 170.055c-5.929 11.361-50.74 24.595-76.009 0.866 -1.571 0.615-6.271 2.085-6.271 2.085 18.406 23.08 72.345 23.227 86.702-0.112C142.221 172.87 139.321 170.737 137.861 170.055z" fill="#dfdde2" stroke-width="none" opacity="1"/>
          <path id="SvgjsPath4406" d="M139.008 167.841c-10.087 18.575-62.578 21.204-78.239 0.625 -5.72 1.556-11.219 4.876-16.756 5.707l-1.243 61.584 110.703 0.107 -0.855-62.386c-3.369-0.707-6.501-2.737-9.254-3.894C141.842 168.945 140.55 168.37 139.008 167.841zM60.39 169.087c13.903 23.086 68.817 18.455 79.419 0.099 1.286 0.499 1.615 0.696 3.106 1.183 -10.982 21.208-65.306 27.967-87.525 1.147C55.546 171.476 58.823 169.629 60.39 169.087zM54.287 172.418c17.963 27.046 77.26 22.856 89.583-1.287 1.771 1.391 4.53 2.989 7.936 3.735l1.66 59.08 -110.377 0.016 1.904-58.299C47.777 174.264 52.247 173.232 54.287 172.418z" fill="#b8b6c9" stroke-width="none" opacity="1"/>
          <path id="SvgjsPath4407" d="M-4.529 235.566c-2.574-13.852-2.292-47.592 9.013-47.521 13.136-5.311 29.269-11.404 42.802-15.311 6.908-7.246 13.436-14.137 26.188-21.314 0.389 2.599 1.874 8.541 0.011 11.773 -1.355 2.352-5.783 5.576-9.554 8.368 -2.029 2.72-3.927 5.374-6.599 9.089 5.168 22.301 9.601 33.78 10.097 53.123 0 0-1.452 0.689 64.471 0.397 2.215-22.339 4.993-33.561 10.379-54.098 0 0-4.308-5.014-7.207-8.87 -2.054-1.997-8.36-7.532-8.84-8.651 -1.175-2.741-0.548-6.188 0.11-11.367 10.793 4.873 17 12.021 26.082 21.303 7.729 2.119 30.86 9.967 42.445 15.216 3.965-0.11 6.203 1.999 7.872 5.466 5.405 11.195 4.126 27.297 2.18 42.789C185.83 235.989 49.887 238.17-4.529 235.566z" fill="#386e77" stroke-width="none" opacity="1"/>
          <path id="SvgjsPath4408" d="M73.875 154.081c0.16 1.07 0.304 2.085 0.411 3.041 -0.218 0.266-17.212 23.353-17.336 23.525C61.126 171.148 67.1 161.305 73.875 154.081zM126.053 154.081c-0.159 1.07-0.184 2.085-0.291 3.041 0.218 0.266 16.931 22.469 17.054 22.642C138.391 170.914 132.828 161.305 126.053 154.081zM165.008 185.154c-4.28 6.231-5.194 8.382-9.879 14.557 1.071 0 2.799 0.166 3.87 0.166C162.663 193.592 162.67 190.393 165.008 185.154zM169.394 230.379c3.793-8.9 6.934-16.711 10.739-25.624l-1.247-2.014C175.717 211.896 172.354 221.199 169.394 230.379zM41.048 199.877c1.071 0 2.799-0.166 3.871-0.166 -4.685-6.175-5.599-6.561-9.878-12.792C37.377 192.158 37.384 193.592 41.048 199.877zM21.161 202.741l-1.247 2.014c3.806 8.913 4.765 16.724 8.559 25.624C25.512 221.199 24.33 211.896 21.161 202.741z" fill="#265e68" stroke-width="none" opacity="1"/>
          <path id="SvgjsPath4409" d="M65.638 169.283c1.181-1.646 5.237-7.272 8.601-12.561C75.227 162.179 73.413 165.416 65.638 169.283zM125.74 156.36c2.553 4.396 5.562 8.772 8.664 12.803C126 165.336 125.435 161.423 125.74 156.36z" fill="#184f58" stroke-width="none" opacity="1"/>
          <path id="SvgjsPath4410" d="M126.318 151.359c0.008-0.061 0.017-0.118 0.023-0.174 18.093 9.999 28.576 25.02 40.747 36.217 -0.448 0.721-1.228 1.193-1.687 1.905C152.656 179.609 146.599 164.946 126.318 151.359zM71.736 152.022c-15.034 8.213-36.242 33.357-38.318 35.269 0.448 0.724 0.691 0.577 1.15 1.288C47.314 178.882 50.793 169.283 71.736 152.022zM194.869 187.704c-1-0.799-24.646-10.039-42.59-14.969 33.698 16.299 45.587 18.545 51.471 24.321C203.367 196.057 202.586 187.489 194.869 187.704zM47.458 172.555c-13.524 3.914-30.839 10.098-42.975 15.491 -5.364 0.106-9.208 7.93-10.031 16.084C1.914 187.317-1.773 198.62 47.458 172.555z" fill="#4d7e86" stroke-width="none" opacity="1"/>
          <path id="SvgjsPath4411" d="M206.6 210.062c-0.34-8.635-3.055-23.103-11.691-22.46 -0.714-0.61-20.822-9.767-42.285-15.611 -7.353-7.455-16.515-17.598-26.371-20.957 -0.711 6.428-1.477 10.622 0.216 12.714 2.241 2.439 4.93 4.879 7.568 6.522 4.616 6.136 8.139 9.778 8.139 9.778 -5.43 20.703-8.815 31.314-10.973 53.688H68.798c-2.157-22.373-5.543-32.984-10.973-53.688 0 0 3.522-3.643 8.139-9.778 2.639-1.644 5.327-4.083 7.568-6.522 1.692-2.092 0.927-6.286 0.216-12.714 -9.856 3.359-19.019 13.502-26.371 20.957 -21.463 5.845-41.571 15.001-42.285 15.611 -8.637-0.643-11.352 13.825-11.691 22.46 -0.411 10.487 1.435 24.938 1.585 25.938h210.029C205.165 234.999 207.011 220.549 206.6 210.062zM72.984 163.194c-2.258 2.233-3.658 3.181-6.473 5.282 4.829-6.271 4.341-5.433 7.708-11.229C74.37 159.739 73.433 162.751 72.984 163.194zM-3.172 234.028c-1.082-12.844-2.916-24.41 0.43-36.992 1.281-4.827 2.484-8.095 7.455-8.509 1.067 5.538 8.132 28.724 14.298 44.533 -6.226-24.192-5.311-18.81-8.219-28.452 -0.964-3.235-1.854-6.486-2.979-9.672 -0.783-2.214-1.65-4.387-2.262-6.653l40.433-14.865c-0.279 0.283-12.895 13.434-13.199 13.804 1.847 3.021 7.816 7.222 10.845 11.758 -12.436 1.174-18.508 3.173-23 3.84 0.331 0.919 9.061 25.353 9.976 27.656 -1.479-7.917-4.816-20.297-8.637-27.211 1.41-0.179 18.077-2.492 23.393-3.477 -1.476-2.854-8.043-8.437-11.559-12.619 20.646-18.162 25.422-27.402 39.593-35.454 0.15 1.509 0.443 3.011 0.55 4.519 -15.795 23.533-17.649 23.567-17.649 23.567 4.585 17.81 10.532 35.824 10.532 54.073L-3.172 234.028zM127.016 163.194c-0.448-0.443-1.386-3.455-1.235-5.947 3.367 5.797 2.879 4.958 7.708 11.229C130.674 166.375 129.273 165.428 127.016 163.194zM203.172 234.028l-70-0.154c0-18.249 5.947-36.264 10.532-54.073 0 0-1.854-0.034-17.649-23.567 0.106-1.508 0.399-3.01 0.55-4.519 14.171 8.052 18.946 17.292 39.593 35.454 -3.516 4.183-10.083 9.766-11.559 12.619 5.315 0.984 21.982 3.298 23.393 3.477 -3.82 6.914-7.157 19.294-8.637 27.211 0.915-2.304 9.645-26.737 9.976-27.656 -4.492-0.667-10.564-2.666-23-3.84 3.028-4.536 8.998-8.736 10.845-11.758 -0.305-0.37-12.92-13.521-13.199-13.804 0.001 0 40.433 14.865 40.433 14.865 -0.611 2.267-1.479 4.439-2.262 6.653 -1.125 3.186-2.015 6.437-2.979 9.672 -2.908 9.643-1.993 4.26-8.219 28.452 6.166-15.81 13.23-38.995 14.298-44.533 4.971 0.414 6.174 3.682 7.455 8.509C206.088 209.618 204.254 221.185 203.172 234.028z" fill="#0c4049" stroke-width="none" opacity="1"/>
        </g>
        <g id="svga-group-head" transform="matrix(1,0,0,1,0,0)">
          <g id="svga-group-ears-left-move" transform="matrix(1,0,0,1,0,0)">
            <g id="svga-group-ears-left" transform="matrix(1,0,0,1,0,0)">
              <path id="SvgjsPath3260" d="M47.001 83.231c-1.376-2.453-5.638-8.48-9.98-7.003 -2.749 0.935-3.293 3.993-3.735 6.693 -0.588 3.591 0.471 10.694 1.389 13.26 0.881 2.467 3.533 7.23 5.264 9.045 2.13 2.225 4.775 9.324 5.194 10.061 0.66 1.162 1.536 2.911 4.122 2.692 2.853-0.244 4.584-1.85 5.856-2.121C58.253 115.192 50.582 89.616 47.001 83.231z" fill="#ffd0bc" stroke="#d17f5b" stroke-width="1.5" opacity="1"/>
              <path id="SvgjsPath3261" d="M44.197 98.104c-0.132-0.581 0.007-1.56 0.142-2.504 0.124-0.861 0.24-1.675 0.169-2.251 -0.267-2.154-1.773-6.249-2.757-8.467 -1.132-2.554-2.963-5.77-5.262-6.599 -0.95-0.343-1.575 0.067-1.938 0.484 -0.266 0.305-0.325 0.665-0.238 0.707 0.086 0.042 0.285-0.254 0.572-0.535 0.235-0.229 0.579-0.426 1.051-0.385 -0.19 1.073-1.167 6.883-0.744 10.845 0.333 3.115 1.593 5.442 1.79 5.791 0.029 0.367 0.077 0.726 0.148 1.075 0.929 4.547 4.971 9.717 6.378 11.409 0.259 0.313 0.531 0.497 0.598 0.423 0.066-0.076-0.094-0.387-0.353-0.7 -1.388-1.679-5.391-6.831-6.289-11.218 -0.952-4.656 2.318-11.556 3.048-13.017 0.371 0.685 0.687 1.344 0.93 1.893 0.19 0.431 0.402 0.936 0.619 1.479 -0.429 0.762-3.434 6.32-2.338 10.767 0.406 1.641 2.235 3.755 3.447 4.333 0.667 0.32 0.919 0.797 1.209 1.349 0.336 0.64 0.718 1.365 1.828 1.892 0.225 0.108 0.429 0.151 0.61 0.151 0.313 0 0.551-0.135 0.725-0.293 0.018 0.28 0.017 0.64 0.009 0.97 -0.012 0.431 0.042 0.783 0.137 0.791 0.094 0.008 0.196-0.332 0.207-0.76 0.016-0.526 0.013-1.177-0.072-1.488 -0.248-0.917-1.008-1.953-1.813-3.048C45.221 100.116 44.403 99.003 44.197 98.104zM36.95 94.073c-2.177-7.139 0.656-13.3 1.144-14.28 0.85 0.822 1.6 1.919 2.21 2.995C39.86 83.646 37.041 89.271 36.95 94.073zM46.341 104.515c-1.004-0.475-1.339-1.115-1.666-1.733 -0.293-0.559-0.598-1.136-1.369-1.505 -0.168-0.081-0.352-0.203-0.542-0.343 -2.486-6.263 0.272-9.001 0.963-9.562 0.211 0.766 0.369 1.468 0.439 2.031 0.063 0.517-0.052 1.339-0.167 2.134 -0.142 0.985-0.286 2.004-0.137 2.664 0.226 0.982 1.069 2.131 1.884 3.242 0.723 0.986 1.466 2.003 1.721 2.832C47.359 104.439 47.017 104.836 46.341 104.515z" fill="#d17f5b" stroke-width="none" opacity="1"/>
            </g>
          </g>
          <g id="svga-group-ears-right-move" transform="matrix(1,0,0,1,0,0)">
            <g id="svga-group-ears-right" transform="matrix(1,0,0,1,0,0)">
              <path id="SvgjsPath3262" d="M152.736 83.231c1.377-2.453 5.639-8.48 9.98-7.003 2.75 0.935 3.293 3.993 3.736 6.693 0.588 3.591-0.471 10.694-1.389 13.26 -0.881 2.467-3.533 7.23-5.266 9.045 -2.129 2.225-4.775 9.324-5.193 10.061 -0.658 1.162-1.535 2.911-4.121 2.692 -2.854-0.244-4.584-1.85-5.857-2.121C141.484 115.192 149.156 89.616 152.736 83.231z" fill="#ffd0bc" stroke="#d17f5b" stroke-width="1.5" opacity="1"/>
              <path id="SvgjsPath3263" d="M153.727 101.196c-0.805 1.096-1.564 2.131-1.813 3.048 -0.086 0.311-0.088 0.962-0.072 1.488 0.012 0.428 0.113 0.768 0.207 0.76s0.148-0.36 0.137-0.791c-0.008-0.331-0.008-0.69 0.01-0.97 0.174 0.158 0.412 0.293 0.725 0.293 0.182 0 0.385-0.043 0.609-0.151 1.109-0.526 1.492-1.252 1.828-1.892 0.289-0.552 0.543-1.028 1.209-1.349 1.213-0.578 3.041-2.692 3.447-4.333 1.096-4.447-1.908-10.005-2.338-10.767 0.217-0.544 0.43-1.049 0.619-1.479 0.244-0.549 0.559-1.208 0.93-1.893 0.73 1.46 4 8.361 3.049 13.017 -0.896 4.387-4.9 9.539-6.289 11.218 -0.258 0.313-0.418 0.624-0.352 0.7 0.066 0.074 0.338-0.109 0.598-0.423 1.406-1.692 5.449-6.862 6.379-11.409 0.07-0.35 0.117-0.708 0.146-1.075 0.197-0.349 1.459-2.676 1.791-5.791 0.422-3.961-0.555-9.772-0.744-10.845 0.473-0.042 0.814 0.156 1.051 0.385 0.287 0.281 0.486 0.577 0.572 0.535 0.086-0.042 0.027-0.402-0.238-0.707 -0.363-0.417-0.988-0.827-1.938-0.484 -2.299 0.83-4.131 4.045-5.262 6.599 -0.984 2.218-2.49 6.313-2.758 8.467 -0.072 0.576 0.045 1.39 0.17 2.251 0.135 0.945 0.273 1.924 0.141 2.504C155.336 99.003 154.518 100.116 153.727 101.196zM159.434 82.787c0.611-1.075 1.361-2.173 2.211-2.995 0.488 0.98 3.32 7.141 1.145 14.28C162.697 89.271 159.879 83.646 159.434 82.787zM152.27 104.275c0.254-0.829 0.998-1.846 1.721-2.832 0.816-1.111 1.658-2.26 1.885-3.242 0.148-0.66 0.004-1.679-0.137-2.664 -0.115-0.795-0.23-1.617-0.166-2.134 0.068-0.563 0.227-1.266 0.438-2.031 0.691 0.561 3.449 3.299 0.965 9.562 -0.191 0.14-0.375 0.263-0.543 0.343 -0.771 0.369-1.074 0.946-1.369 1.505 -0.326 0.618-0.662 1.258-1.666 1.733C152.721 104.836 152.379 104.439 152.27 104.275z" fill="#d17f5b" stroke-width="none" opacity="1"/>
            </g>
          </g>
          <g id="svga-group-faceshape-wrap" transform="matrix(1,0,0,1,0,0)">
            <g id="svga-group-faceshape-single">
              <path id="SvgjsPath3264" d="M158.785 78.006l-0.005 0c-0.01 0.046-12.197 40.27-15.879 52.418 -0.715 2.358-1.931 4.551-3.556 6.386 -6.375 7.194-23.768 25.057-39.324 25.057 -15.849 0-33.591-19.045-39.708-26.214 -1.442-1.688-2.507-3.633-3.172-5.765 -3.607-11.551-16.126-51.648-16.137-51.694h-0.001c-1.298-4.992-1.994-10.231-2.002-15.634C38.949 28.536 66.155 0.92 99.773 0.867c33.621-0.053 60.913 27.476 60.964 61.499C160.746 67.769 160.068 73.01 158.785 78.006z" fill="#ffd0bc" stroke-width="none" opacity="1"/>
              <path id="SvgjsPath3265" d="M132.168 10.26c14.31 11.135 23.671 29.457 23.699 50.208 0.009 5.404-0.615 10.645-1.796 15.641l-0.004 0c-0.009 0.046-11.223 40.27-14.608 52.417 -0.658 2.358-1.776 4.551-3.271 6.385 -5.865 7.195-21.866 25.059-36.178 25.059 -14.582 0-30.904-19.047-36.531-26.215 -1.327-1.689-2.306-3.633-2.918-5.764 -3.318-11.552-14.836-51.649-14.846-51.695h-0.001c-1.194-4.992-1.834-10.231-1.842-15.634 -0.029-20.827 9.348-39.239 23.713-50.412C50.392 21.159 38.967 40.508 39.001 62.56c0.008 5.403 0.704 10.643 2.002 15.634h0.001c0.01 0.046 12.53 40.143 16.137 51.694 0.666 2.132 1.73 4.076 3.172 5.765 6.116 7.169 23.858 26.214 39.708 26.214 15.557 0 32.949-17.862 39.324-25.057 1.625-1.835 2.841-4.027 3.556-6.386 3.682-12.148 15.869-52.372 15.879-52.418l0.005 0c1.283-4.997 1.961-10.237 1.952-15.641C160.704 40.389 149.297 21.135 132.168 10.26z" fill="#f7c1aa" stroke-width="none" opacity="1"/>
              <path id="SvgjsPath3266" d="M158.785 78.006l-0.005 0c-0.01 0.046-12.197 40.27-15.879 52.418 -0.715 2.358-1.931 4.551-3.556 6.386 -6.375 7.194-23.768 25.057-39.324 25.057 -15.849 0-33.591-19.045-39.708-26.214 -1.442-1.688-2.507-3.633-3.172-5.765 -3.607-11.551-16.126-51.648-16.137-51.694h-0.001c-1.298-4.992-1.994-10.231-2.002-15.634C38.949 28.536 66.155 0.92 99.773 0.867c33.621-0.053 60.913 27.476 60.964 61.499C160.746 67.769 160.068 73.01 158.785 78.006z" fill="none" stroke="#d17f5b" stroke-width="1.5" opacity="1"/>
            </g>
          </g>
          <g id="svga-group-mouth-single-move" transform="matrix(1,0,0,1,0.5,0)">
            <g id="svga-group-mouth-single" transform="matrix(1.350001300000001,0,0,1.350001300000001,-34.99627943027812,-47.58428852687544)">
              <path id="SvgjsPath3211" d="M100.182 141c-5.713 0.011-6.89-2.654-6.89-2.654 5.5 0.355 8.269 0.352 13.77-0.023C107.062 138.322 105.202 140.99 100.182 141z" fill="url(#SvgjsLinearGradient3212)" opacity="1"/>
              <path id="SvgjsPath3215" d="M84.557 134.475c3.326-0.44 6.44-2.644 11.501-3.439 2.373-0.373 2.949 0.4 4.054 0.414 1.184 0.015 2.717-0.69 4.031-0.512 6.125 0.831 5.396 2.467 11.315 3.352 -3.168 1.46-4.501 5.455-15.556 5.446C89.159 139.727 87.1 135.601 84.557 134.475z" fill="#da7c87" stroke-width="none" opacity="1"/>
              <path id="SvgjsPath3216" d="M91.318 135.048c0.446-0.532 5.698-1.207 8.911-1.206 3.404 0.001 8.715 0.481 9.01 1.19C104.432 135.155 95.022 135.133 91.318 135.048z" fill="#ffffff" stroke-width="none" opacity="1"/>
              <path id="SvgjsPath3217" d="M115.252 134.173c-1.96 0.192-3.961 0.548-5.968 0.681 -1.058-0.726-6.033-1.156-9.083-1.152 -2.683 0.003-6.974 0.512-8.549 1.05 -0.276 0.07-0.514 0.153-0.664 0.241 -3.775-0.211-6.196-0.68-6.259-0.686 -0.266-0.026-0.483 0.081-0.48 0.239 0.004 0.146 0.226 0.106 0.472 0.145 0.018 0.003 0.068 0.01 0.051 0.007 10.096 1.27 20.364 1.202 30.432-0.13 0.264-0.035 0.521 0.001 0.525-0.158C115.733 134.251 115.517 134.146 115.252 134.173zM99.987 135.159c-2.683-0.001-5.252-0.088-7.143-0.148 0.041-0.115 0.062-0.175 0.102-0.29 1.82-0.395 4.965-0.732 7.282-0.735 2.312-0.003 5.359 0.218 7.201 0.59 0.062 0.171 0.094 0.256 0.155 0.426C105.521 135.069 102.864 135.16 99.987 135.159z" fill="#ac2e3d" stroke-width="none" opacity="1"/>
              <path id="SvgjsPath3218" d="M99.798 138.56c-3.813-0.007-8.469-0.729-11.573-2.26 7.157 0.231 15.488 0.269 22.638-0.005C107.589 137.975 103.873 138.573 99.798 138.56zM100.153 132.96c3.904-0.006 7.402 0.312 10.986 0.965 -1.783-0.779-3.208-1.623-5.388-1.969 -0.978-0.154-1.549-0.346-2.513-0.166 -0.973 0.182-2.557 0.313-3.323 0.275 -1.978-0.096-2.997-0.313-4.496-0.19 -2.489 0.204-3.257 1.008-5.215 1.847C93.877 133.444 96.308 132.966 100.153 132.96z" fill="#e28c96" stroke-width="none" opacity="1"/>
              <path id="SvgjsPath3219" d="M93.404 136.958c2.576-0.154 11.612-0.211 13.539-0.091C103.598 138.01 98.311 138.664 93.404 136.958z" fill="#e99ca5" stroke-width="none" opacity="1"/>
            </g>
          </g>
          <g id="svga-group-eyes-left-move" transform="matrix(1,0,0,1,0,0)">
            <g id="svga-group-eyes-left" transform="matrix(1,0,0,1,0,0)">
              <g id="svga-group-eyesback-left">
                <path id="SvgjsPath4312" d="M61.752 82.523c-0.506-2.285 5.191-3.973 12.711-3.051 7.518 0.923 12.738 5.524 12.052 7.844 -0.38 1.286-10.639 3.245-14.253 2.847C68.598 89.758 62.974 88.04 61.752 82.523z" fill="url(#SvgjsRadialGradient4313)" opacity="1"/>
              </g>
              <g id="svga-group-eyesiriswrapper-left" transform="matrix(1,0,0,1,0.25,0.25)">
                <g id="svga-group-eyesiriscontrol-left" transform="matrix(1,0,0,1,0,0)">
                  <g id="svga-group-eyesiris-left" transform="matrix(1,0,0,1,0,0)">
                    <path id="SvgjsPath4267" d="M79.788 85.588c-0.869 3.192-4.162 5.073-7.361 4.196 -3.197-0.876-5.084-4.178-4.214-7.371 0.869-3.195 4.168-5.076 7.365-4.198C78.772 79.09 80.659 82.392 79.788 85.588z" fill="#7b5c33" stroke="#4d3009" stroke-width="0.5" opacity="1"/>
                    <path id="SvgjsPath4268" d="M79.643 84.371c-0.441 3.545-3.072 5.392-5.952 5.199 -2.658-0.179-5.034-2.14-5.254-5.525 0.919-0.264 2.14 0.165 3.211 0.001 -0.003 0.039-0.017 0.074-0.018 0.113 -0.084 1.3 0.958 2.433 2.329 2.525 1.374 0.092 2.556-0.892 2.641-2.191 0.009-0.169-0.001-0.336-0.027-0.496C77.527 84.141 78.693 83.999 79.643 84.371z" fill="#8a6d47" stroke-width="none" opacity="1"/>
                    <path id="SvgjsPath4269" d="M74.867 81.998c-1.319-0.377-2.667 0.376-3.007 1.691 -0.341 1.308 0.453 2.678 1.771 3.056 1.322 0.379 2.669-0.375 3.011-1.684C76.986 83.745 76.188 82.376 74.867 81.998z" fill="#000000" stroke-width="none" opacity="0.9"/>
                    <path id="SvgjsPath4270" d="M74.867 81.998c-1.319-0.377-2.667 0.376-3.007 1.691 -0.341 1.308 0.453 2.678 1.771 3.056 1.322 0.379 2.669-0.375 3.011-1.684C76.986 83.745 76.188 82.376 74.867 81.998z" fill="none" stroke="#4d3009" stroke-width="0.75" opacity="1"/>
                    <path id="SvgjsPath4271" d="M71.16 87.657c-0.125 0.437-0.806 0.251-0.681-0.188 0.121-0.423 0.446-0.683 0.653-1.055 0.221-0.398 0.831-0.042 0.609 0.356C71.571 87.078 71.257 87.314 71.16 87.657L71.16 87.657zM72.246 86.96c-0.188 0.219-0.434 1.03-0.54 1.295 -0.17 0.422 0.513 0.604 0.681 0.188 0.058-0.145 0.256-0.863 0.359-0.983C73.04 87.116 72.543 86.614 72.246 86.96L72.246 86.96zM73.716 89.048c0.369-0.425 0.332-0.912 0.324-1.441 -0.007-0.455-0.713-0.455-0.706 0 0.004 0.293 0.092 0.701-0.117 0.942C72.92 88.891 73.417 89.392 73.716 89.048L73.716 89.048zM74.437 87.519c0.005 0.438 0.06 0.865 0.189 1.285 0.134 0.434 0.815 0.249 0.681-0.188 -0.112-0.362-0.159-0.719-0.164-1.097C75.138 87.064 74.432 87.063 74.437 87.519L74.437 87.519z" fill="#ffffff" stroke-width="none" opacity="0.5"/>
                    <path id="SvgjsPath4272" d="M78.197 82.971c-0.695 0.417-1.74 0.042-2.333-0.839 -0.592-0.881-0.503-1.934 0.193-2.349 0.694-0.419 1.742-0.043 2.33 0.838C78.979 81.502 78.893 82.554 78.197 82.971z" fill="#ffffff" stroke-width="none" opacity="0.8"/>
                  </g>
                </g>
              </g>
              <g id="svga-group-eyesfront-left">
                <path id="SvgjsPath4334" d="M53.294 83c0.809 10.899 11.637 23.583 20.506 22.236 10.498 0.106 20.864-7.868 20.864-22.305s-5.087-26.528-21.127-26.528C62.037 56.402 53.294 68.563 53.294 83zM61.752 82.523c-0.506-2.285 5.191-3.973 12.711-3.051 7.518 0.923 12.738 5.524 12.052 7.844 -0.38 1.286-10.639 3.245-14.253 2.847C68.598 89.758 62.974 88.04 61.752 82.523z" fill="#ffd0bc" stroke-width="none" opacity="1"/>
                <path id="SvgjsPath4335" d="M72.262 90.163c3.614 0.398 13.873-1.561 14.253-2.847 0.687-2.32-4.534-6.921-12.052-7.844C68.003 78.68 62.9 79.816 61.907 81.6c0.898-6.4 7.7-11.397 15.987-11.434 8.911-0.037 16.148 5.676 16.172 12.765 0.021 7.088-7.185 12.862-16.095 12.902 -8.913 0.037-16.149-5.676-16.173-12.764 0-0.105 0.016-0.208 0.019-0.313C63.147 88.083 68.651 89.764 72.262 90.163z" fill="url(#SvgjsRadialGradient4336)" opacity="1"/>
                <path id="SvgjsPath4340" d="M61.752 82.523c-0.506-2.285 5.191-3.973 12.711-3.051 7.518 0.923 12.738 5.524 12.052 7.844 -0.38 1.286-10.639 3.245-14.253 2.847C68.598 89.758 62.974 88.04 61.752 82.523z" fill="url(#SvgjsRadialGradient4341)" opacity="1"/>
                <path id="SvgjsPath4344" d="M62.148 77.417c4.208-1.978 9.35-2.16 13.838-1.005 2.404 0.561 4.965 1.285 7.063 2.638 1.945 1.135 3.525 2.5 5.002 4.19 -1.342-1.701-2.773-3.118-4.623-4.27 -2.276-1.416-4.769-2.294-7.364-2.916C71.478 74.928 66.342 75.184 62.148 77.417z" fill="#d17f5b" stroke-width="none" opacity="1"/>
                <path id="SvgjsPath4345" d="M62.769 78.02c0.88-0.352 4.065-1 5.456-1.066 1.687-0.082 5.073 0.125 6.735 0.424 3.374 0.608 9.251 2.483 11.678 7.184 0.746 1.445 0.074 2.456-0.123 2.675 0.3-2.426-4.838-6.746-12.052-7.604 -7.52-0.894-13.217 0.743-12.711 2.958 1.222 5.348 6.846 7.013 10.51 7.405 4.099 0.439 11.684-1.539 12.686-1.753 -1.999 1.009-7.524 2.095-9.767 2.303 -0.744 0.07-2.24 0.104-2.986 0.085 -5.949-0.158-10.169-3.175-11.729-7.26C59.464 80.745 60.56 78.902 62.769 78.02z" fill="#000000" stroke-width="none" opacity="1"/>
              </g>
            </g>
          </g>
          <g id="svga-group-eyes-right-move" transform="matrix(1,0,0,1,0,0)">
            <g id="svga-group-eyes-right" transform="matrix(1,0,0,1,0,0)">
              <g id="svga-group-eyesback-right">
                <path id="SvgjsPath4319" d="M137.849 82.523c0.506-2.285-5.191-3.973-12.711-3.051 -7.518 0.923-12.738 5.524-12.052 7.844 0.38 1.286 10.639 3.245 14.253 2.847C131.003 89.758 136.627 88.04 137.849 82.523z" fill="url(#SvgjsRadialGradient4320)" opacity="1"/>
              </g>
              <g id="svga-group-eyesiriswrapper-right" transform="matrix(1,0,0,1,-0.25,0.25)">
                <g id="svga-group-eyesiriscontrol-right" transform="matrix(1,0,0,1,0,0)">
                  <g id="svga-group-eyesiris-right" transform="matrix(1,0,0,1,0,0)">
                    <path id="SvgjsPath4273" d="M131.788 85.588c-0.869 3.192-4.162 5.073-7.362 4.196 -3.196-0.876-5.084-4.178-4.214-7.371 0.869-3.195 4.169-5.076 7.365-4.198C130.772 79.09 132.658 82.392 131.788 85.588z" fill="#7b5c33" stroke="#4d3009" stroke-width="0.5" opacity="1"/>
                    <path id="SvgjsPath4274" d="M131.643 84.371c-0.44 3.545-3.072 5.392-5.951 5.199 -2.657-0.179-5.034-2.14-5.255-5.525 0.919-0.264 2.141 0.165 3.212 0.001 -0.004 0.039-0.017 0.074-0.019 0.113 -0.085 1.3 0.958 2.433 2.329 2.525 1.374 0.092 2.555-0.892 2.64-2.191 0.009-0.169-0.001-0.336-0.026-0.496C129.527 84.141 130.693 83.999 131.643 84.371z" fill="#8a6d47" stroke-width="none" opacity="1"/>
                    <path id="SvgjsPath4275" d="M126.867 81.998c-1.319-0.377-2.666 0.376-3.007 1.691 -0.341 1.308 0.453 2.678 1.771 3.056 1.322 0.379 2.669-0.375 3.011-1.684C128.986 83.745 128.188 82.376 126.867 81.998z" fill="#000000" stroke-width="none" opacity="0.9"/>
                    <path id="SvgjsPath4276" d="M126.867 81.998c-1.319-0.377-2.666 0.376-3.007 1.691 -0.341 1.308 0.453 2.678 1.771 3.056 1.322 0.379 2.669-0.375 3.011-1.684C128.986 83.745 128.188 82.376 126.867 81.998z" fill="none" stroke="#4d3009" stroke-width="0.75" opacity="1"/>
                    <path id="SvgjsPath4277" d="M123.16 87.657c-0.125 0.437-0.806 0.251-0.682-0.188 0.121-0.423 0.447-0.683 0.654-1.055 0.22-0.398 0.83-0.042 0.609 0.356C123.571 87.078 123.257 87.314 123.16 87.657L123.16 87.657zM124.246 86.96c-0.188 0.219-0.434 1.03-0.54 1.295 -0.171 0.422 0.513 0.604 0.681 0.188 0.059-0.145 0.256-0.863 0.358-0.983C125.04 87.116 124.543 86.614 124.246 86.96L124.246 86.96zM125.716 89.048c0.369-0.425 0.332-0.912 0.324-1.441 -0.007-0.455-0.713-0.455-0.706 0 0.004 0.293 0.092 0.701-0.117 0.942C124.92 88.891 125.418 89.392 125.716 89.048L125.716 89.048zM126.438 87.519c0.005 0.438 0.059 0.865 0.188 1.285 0.135 0.434 0.815 0.249 0.681-0.188 -0.112-0.362-0.159-0.719-0.164-1.097C127.138 87.064 126.432 87.063 126.438 87.519L126.438 87.519z" fill="#ffffff" stroke-width="none" opacity="0.5"/>
                    <path id="SvgjsPath4278" d="M130.197 82.971c-0.695 0.417-1.74 0.042-2.333-0.839 -0.592-0.881-0.504-1.934 0.192-2.349 0.695-0.419 1.742-0.043 2.33 0.838C130.979 81.502 130.893 82.554 130.197 82.971z" fill="#ffffff" stroke-width="none" opacity="0.8"/>
                  </g>
                </g>
              </g>
              <g id="svga-group-eyesfront-right">
                <path id="SvgjsPath4354" d="M126.063 56.402c-16.04 0-21.127 12.091-21.127 26.528s10.366 22.412 20.864 22.305c8.869 1.347 19.697-11.337 20.506-22.236C146.307 68.563 137.563 56.402 126.063 56.402zM127.339 90.163c-3.614 0.398-13.873-1.561-14.253-2.847 -0.687-2.32 4.534-6.921 12.052-7.844 7.52-0.922 13.217 0.767 12.711 3.051C136.627 88.04 131.003 89.758 127.339 90.163z" fill="#ffd0bc" stroke-width="none" opacity="1"/>
                <path id="SvgjsPath4355" d="M127.339 90.163c-3.614 0.398-13.873-1.561-14.253-2.847 -0.687-2.32 4.534-6.921 12.052-7.844 6.46-0.792 11.563 0.345 12.556 2.128 -0.898-6.4-7.7-11.397-15.987-11.434 -8.911-0.037-16.148 5.676-16.172 12.765 -0.021 7.088 7.185 12.862 16.095 12.902 8.913 0.037 16.149-5.676 16.173-12.764 0-0.105-0.016-0.208-0.019-0.313C136.453 88.083 130.949 89.764 127.339 90.163z" fill="url(#SvgjsRadialGradient4356)" opacity="1"/>
                <path id="SvgjsPath4360" d="M137.849 82.523c0.506-2.285-5.191-3.973-12.711-3.051 -7.518 0.923-12.738 5.524-12.052 7.844 0.38 1.286 10.639 3.245 14.253 2.847C131.003 89.758 136.627 88.04 137.849 82.523z" fill="url(#SvgjsRadialGradient4361)" opacity="1"/>
                <path id="SvgjsPath4364" d="M137.452 77.417c-4.208-1.978-9.35-2.16-13.838-1.005 -2.404 0.561-4.965 1.285-7.063 2.638 -1.945 1.135-3.525 2.5-5.002 4.19 1.342-1.701 2.773-3.118 4.623-4.27 2.276-1.416 4.769-2.294 7.364-2.916C128.123 74.928 133.259 75.184 137.452 77.417z" fill="#d17f5b" stroke-width="none" opacity="1"/>
                <path id="SvgjsPath4365" d="M136.832 78.02c-0.88-0.352-4.065-1-5.456-1.066 -1.687-0.082-5.073 0.125-6.735 0.424 -3.374 0.608-9.251 2.483-11.678 7.184 -0.746 1.445-0.074 2.456 0.123 2.675 -0.3-2.426 4.838-6.746 12.052-7.604 7.52-0.894 13.217 0.743 12.711 2.958 -1.222 5.348-6.846 7.013-10.51 7.405 -4.099 0.439-11.684-1.539-12.686-1.753 1.999 1.009 7.524 2.095 9.767 2.303 0.744 0.07 2.24 0.104 2.986 0.085 5.949-0.158 10.169-3.175 11.729-7.26C140.137 80.745 139.041 78.902 136.832 78.02z" fill="#000000" stroke-width="none" opacity="1"/>
              </g>
            </g>
          </g>
          <g id="svga-group-facehighlight-single">
            <path id="SvgjsPath2906" d="M141 113.974c0.035 22.622-18.292 40.994-40.938 41.025 -22.642 0.037-41.028-18.273-41.063-40.9 -0.035-22.62 18.292-41.064 40.937-41.1C122.579 72.964 140.967 91.349 141 113.974z" fill="url(#SvgjsRadialGradient2907)" opacity="1"/>
            <path id="SvgjsPath2910" d="M137.5 53.999c0 20.711-16.789 37.5-37.499 37.5 -20.711 0-37.501-16.789-37.501-37.5s16.79-37.5 37.501-37.5C120.711 16.499 137.5 33.288 137.5 53.999z" fill="url(#SvgjsRadialGradient2911)" opacity="1"/>
          </g>
          <g id="svga-group-eyebrows-left-move" transform="matrix(1,0,0,1,0,-2)">
            <g id="svga-group-eyebrows-left-rotate" transform="matrix(0.9825664758682251,-0.1859116107225418,0.1859116107225418,0.9825664758682251,-12.281167030334473,14.6573486328125)">
              <g id="svga-group-eyebrows-left" transform="matrix(0.9999999,0,0,0.9999999,0.000007219233125965729,0.000007048908997830949)">
                <path id="SvgjsPath4382" d="M53.149 74.996c9.743-15.115 36.491 5.148 38.018-1.191 0.299-1.271-0.407-2.015-1.564-2.492C75.982 65.807 57.955 61.18 53.149 74.996z" fill="#3b3128" stroke-width="none" opacity="1"/>
              </g>
            </g>
          </g>
          <g id="svga-group-eyebrows-right-move" transform="matrix(1,0,0,1,0,-2)">
            <g id="svga-group-eyebrows-right-rotate" transform="matrix(0.9825664758682251,0.1859116107225418,-0.1859116107225418,0.9825664758682251,15.775385856628418,-22.480749130249023)">
              <g id="svga-group-eyebrows-right" transform="matrix(0.9999999,0,0,0.9999999,0.000012780766283526646,0.000007048908997830949)">
                <path id="SvgjsPath4383" d="M146.851 74.996c-9.743-15.115-36.491 5.148-38.018-1.191 -0.299-1.271 0.407-2.015 1.564-2.492C124.018 65.807 142.045 61.18 146.851 74.996z" fill="#3b3128" stroke-width="none" opacity="1"/>
              </g>
            </g>
          </g>
          <g id="svga-group-nose-single-move" transform="matrix(1,0,0,1,0,0)">
            <g id="svga-group-nose-single" transform="matrix(1,0,0,1,0,0)">
              <path id="SvgjsPath3225" d="M96.831 88.524c0 0-1.399 11.117-2.026 13.281 -1.379 4.752-6.168 11.417-5.239 14.429 1.859 6.022 7.537 4.493 10.524 4.471 2.763-0.022 8.072 1.552 9.162-2.37 0.352-1.266-0.441-4.466-0.441-4.466s-2.644 3.112-8.875 2.767c-1.778-0.099-4.671-2.096-4.704-4.912 -0.043-3.817 1.802-7.035 2.205-10.824C97.741 98.022 96.831 88.524 96.831 88.524z" fill="#f0b399" stroke-width="none" opacity="1"/>
              <path id="SvgjsPath3226" d="M105.194 118.969c1.075 0 1.366 0.326 1.366 0.729 0 0.404-0.335 1.026-1.366 0.73 -1.134-0.323-3.113-0.175-3.113-0.175S104.117 118.969 105.194 118.969zM94.922 118.969c-1.077 0.001-1.366 0.328-1.366 0.733 -0.001 0.403 0.323 0.983 1.366 0.729 1.15-0.282 3.112-0.175 3.112-0.175S95.999 118.973 94.922 118.969zM108.81 113.869c0 0 1.489 1.933 1.18 3.975 -0.301 1.983-3.31 2.861-3.31 2.861s2.089-1.516 2.342-3.356C109.14 116.486 108.81 113.869 108.81 113.869zM90.427 111.883c0 0-1.086 2.704-0.772 4.352 0.571 2.976 3.704 4.164 3.704 4.164s-1.955-2.039-2.65-3.842C89.948 114.587 90.427 111.883 90.427 111.883z" fill="#d17f5b" stroke-width="none" opacity="1"/>
              <path id="SvgjsPath3227" d="M105.141 115.311c1.043-0.889 1.148-1.396 0.932-1.729 -0.215-0.334-0.841-0.545-1.714 0.528 -0.963 1.18-3.056 2.054-3.056 2.054S104.098 116.198 105.141 115.311z" fill="#ffe2d6" stroke-width="none" opacity="1"/>
            </g>
          </g>
          <g id="svga-group-beardwrap" transform="matrix(1,0,0,1,0,0)">
            <g id="svga-group-beard-single-move" transform="matrix(1,0,0,1,0,0)">
              <g id="svga-group-beard-single" transform="matrix(1,0,0,1,0,0)">
                <path id="SvgjsPath3042" d="M100,18.13L100,18.13L100,18.13L100,18.13z" fill="#2a232b" stroke-width="none" opacity="1"/>
              </g>
            </g>
          </g>
          <g id="svga-group-mustache-single-move" transform="matrix(1,0,0,1,0,0)">
            <g id="svga-group-mustache-single" transform="matrix(1,0,0,1,0,0)">
              <path id="SvgjsPath3040" d="M100,18.13L100,18.13L100,18.13L100,18.13z" fill="#2a232b" stroke-width="none" opacity="1"/>
            </g>
          </g>
          <g id="svga-group-hair-front" transform="matrix(1,0,0,1,0,0)">
            <path id="SvgjsPath4394" d="M44.974,94.895c-2.423-8.815-3.728-16.533-5.54-24.585l0.083-0.019c-0.686-1.689-3.162-15.06-3.185-15.204c-2.525-17.77,4.993-18.784,4.84-26.198c3.165,1.585,6.242,0.799,9.019-1.365c-2.918-1.499-1.997-1.736-5.872-4.095c2.731-0.472,4.326,0.165,6.646,0.454c-1.983-1.983-5.875-6.028-8.404-5.492l-0.165-0.354c3.661-2.857,8.548,3.091,12.954,1.48C55.483,3.144,79.417-0.256,85.242-2.689c7.755-2.951,15.856-9.441,21.553-10.021c-3.225,3.241-5.2,8.449-5.347,12.358c4.698-4.486,5.03-4.355,12.151-12.264c0,6.364-1.763,7.163-4.051,10.898c6.211-4.07,13.955-15.489,25.881-17.235l0.131,0.37c-4.298,2.532-7.624,6.804-9.898,12.708c2.257-2.726,5.451-5.683,8.986-6.218l0.133,0.369c-2.215,1.325-6.554,5.742-7.547,13.138c4.381-4.893,11.35-8.948,16.134-10.48l0.187,0.346c-4.392,3.573-6.153,9.828-7.146,15.146c3.08-4.58,4.872-5.624,8.747-7.548c-1.247,1.865-1.166,1.539-2.158,3.566c2.396,6.123,10.313,6.361,11.666,17.059c1.63-1.424,2.277-1.781,4.151-3.092l0.282,0.272c-1.408,2.187-2.569,6.06-3.342,8.652c2.78-2.123,7.073-3.687,10.096-4.778l0.211,0.328c-2.551,2.593-5.648,6.546-6.162,10.834c1-0.592,1.048-0.524,2.35-1.466c0,3.081,0.105,2.688,0.127,4.105c1.257-1.125,1.45-1.282,2.276-2.181c-0.183,32.362-1.845,25.912-6.317,48.466c-0.784,3.963-2.171,10.883-3.061,14.207l-6.049,1.039c1.87-22.394-0.093-17.512,1.267-31.604c2.012-20.779-14.804-37.812-37.025-32.237c-4.496,1.128-22.44,1.127-26.934,0c-24.547-6.163-33.391,8.18-36.026,33.278c-1.291,12.318-1.607,8.161,0.267,30.563L44.974,94.895z" fill="#2a232b" stroke-width="none" opacity="1"/>
            <path id="SvgjsPath4395" d="M162.376,34.359c-0.021-1.418-0.127-1.024-0.127-4.105c-1.302,0.941-1.35,0.874-2.35,1.466c0.514-4.288,3.611-8.241,6.162-10.834l-0.211-0.328c-3.022,1.092-7.315,2.655-10.096,4.778c0.772-2.592,1.934-6.465,3.342-8.652l-0.282-0.272c-1.874,1.311-2.521,1.668-4.151,3.092c-1.353-10.697-9.27-10.936-11.666-17.059c0.992-2.027,0.911-1.701,2.158-3.566c-3.875,1.924-5.667,2.968-8.747,7.548c0.993-5.318,2.755-11.573,7.146-15.146l-0.187-0.346c-4.784,1.532-11.753,5.587-16.134,10.48c0.993-7.396,5.332-11.813,7.547-13.138l-0.133-0.369c-3.535,0.535-6.729,3.493-8.986,6.218c2.274-5.904,5.601-10.176,9.898-12.708l-0.131-0.37c-11.926,1.746-19.67,13.165-25.881,17.235c2.288-3.735,4.051-4.535,4.051-10.898c-7.121,7.909-7.453,7.778-12.151,12.264c0.146-3.909,2.122-9.118,5.347-12.358c-5.696,0.58-13.797,7.069-21.553,10.021C79.417-0.256,55.483,3.144,55.35,19.518c-4.406,1.611-9.293-4.337-12.954-1.48l0.165,0.354c2.529-0.537,6.421,3.508,8.404,5.492c-2.319-0.289-3.915-0.926-6.646-0.454c3.875,2.359,2.954,2.596,5.872,4.095c-2.777,2.164-5.854,2.95-9.019,1.365c0.153,7.415-7.366,8.429-4.84,26.198c0.023,0.144,2.499,13.515,3.185,15.204l-0.083,0.019c1.812,8.052,3.117,15.771,5.54,24.585L45,94.899c-0.661-16.442-11.02-39.816-4.941-54.788C40.852,38.156,43.92,33,43.92,33s9.627-1.264,10.08-5c0,0-2-1-3-2c2,1,2-2,4-1c0-2-3-1-3-3c2,0,4,0,6,2c-1-5,0-10,4-13C72,3,85,4,95-4c-1,5-2,10-2,15c6-3,8-9,13-13c1,4-1,9-1,13c3-7,7-14,16-16c-4,4-4,10-4,15c0-4,4-6,5-9c0,4,0,8,0,12c2-6,6-9,11-11c-4,4-3,8-4,13c3-3,7-4,10-7c3,6,1,11,1,17c1-5,6-8,9-12c1,5,1,10,0,15c1-3,3-5,4-8c0,4.86-0.668,9.062-1.98,13.142c1.255-1.452,3.304-2.111,3.98-4.142c0,4.325,0,7.904,0,12.027c0.58-1.192,2.29-1.608,3-3.027c-0.854,3.413-0.254,6.103-0.059,9.302c0.371-1.96,2.258-3.162,2.94-4.967c0.04-0.778,0.081-1.557,0.118-2.335c0.229,0.912,0.135,1.664-0.118,2.335c-0.912,17.771-2.593,35.516-6.256,52.628l0.648-0.111c0.89-3.324,2.276-10.244,3.061-14.207c4.473-22.554,6.135-16.104,6.317-48.466C163.826,33.078,163.633,33.235,162.376,34.359z" fill="#3a353a" stroke-width="none" opacity="1"/>
            <path id="SvgjsPath4396" d="M167.779,19.695c-4.949,0.834-8.406,2.438-11.05,4.25c0.385-1.005,2.193-6.67,4.14-9.05c-2.99,1.333-4.72,2.763-5.72,3.51c0-1.032-0.398-2.224-0.59-2.84c-0.189-0.515-0.348-1.117-1.271-2.62c-5.171-7.296-5.494-4.244-9.729-9.83c0.772-1.811,1.889-3.572,3.29-5.03c-3.908,0.555-5.965,2.075-8.44,4.51c-0.04,0.04-0.07,0.08-0.1,0.12c1.551-6.126,4.59-11.437,10.56-13.43c-7.384-0.268-16.525,5.192-21.12,10.64c1.984-6.381,4.646-9.421,8.601-12.25c-2.846-0.421-5.635,0.742-7.841,2.58c2.541-4.397,6.317-7.899,9.351-9.53c-0.431-0.01-0.94-0.04-1.5,0c-0.777-0.199-5.479,0.566-7.16,1.29c-8.329,3.252-14.389,10.822-16.99,13.28c1.916-3.098,2.01-5.298,1.66-8.52c-0.655,0.563-11.615,11.055-11.75,11.19c0.777-4.309,2.245-6.937,5.02-10.79c-4.947-0.926-17.332,7.217-25.01,9.39c-8.044,2.179-28.004,6.723-27.09,22.7c-4.295,0.819-10.584-6.077-13.88-0.29c2.646-1.57,6.151,2.21,8.59,4.37c-1-0.163-4.343-0.948-5.96,0.13c1.894,0.735,3.55,2.932,5.89,4.1c0.03,0.01,0.06,0.02,0.09,0.04c-2.139,1.128-4.667,2.034-6.99,1.39c-0.35-0.1-0.58-0.16-0.58-0.17c-0.27-0.12-0.56-0.24-0.87-0.38h-0.01l-0.01-0.01c-0.13-0.07-0.26-0.14-0.4-0.21c0.695,5.608-7.817,10.155-6.88,22.02c0.385,7.301,4.949,29.508,10.686,44.566l0.483,0.144c-2.392-8.626-3.777-16.74-5.569-24.701c-0.156,0-3.073-15.044-3.1-15.21c-2.506-17.631,4.994-18.91,4.85-25.84c3.121,1.561,6.532,0.436,9.18-1.73c-3.118-1.551-2.453-1.988-5.68-3.95c2.163-0.374,4.803,0.483,6.62,0.6c-2.346-2.346-6.299-6.51-8.98-5.94c3.568-2.785,8.497,3.271,13.03,1.46c0-16.383,23.723-19.635,29.77-22.16c7.271-2.766,16.283-9.476,20.939-9.95c-2.44,2.458-5.02,7.901-5.02,12.58c4.834-4.638,5.31-4.615,12.16-12.22c0,6.014-2.247,7.088-4.431,10.97c6.414-3.698,14.179-15.828,26.49-17.63c-5.154,3.037-8.435,8.325-10.41,13.97c2.352-3.059,5.8-6.53,9.63-7.11c-2.009,1.202-6.861,5.782-7.72,13.93c4.345-5.114,11.586-9.346,16.47-10.91c-4.605,3.748-6.368,10.371-7.39,16.22c1.687-2.573,3.357-4.897,5.97-6.54c0.011-0.01,0.03-0.02,0.04-0.02c1.029-0.699,0.76-0.509,2.521-1.39c-0.669,1-0.731,0.87-1.79,3.04c2.426,6.377,10.523,6.413,11.729,17.47c1.857-1.647,2.441-1.944,4.42-3.33c-1.542,2.394-2.784,6.768-3.55,9.32c2.905-2.485,8.279-4.33,10.54-5.15c-3,3.05-5.913,7.096-6.26,11.36c0.614-0.413,1.394-0.74,2.39-1.46c0,2.724,0.13,2.36,0.13,4.16c0.526-0.481,1.72-1.51,2.271-2.11c-0.196,31.716-1.88,25.564-6.311,47.91c-1.658,8.376-2.533,12.25-3.081,14.283l0.428-0.087c3.584-10.751,10.737-35.042,10.414-47.616c-0.033-4.7-1.059-14.5-1.11-15.5c-0.021,0.018-2.084,1.97-2.11,1.97c0-0.511-0.21-2.685-0.21-3.87c-0.353,0.271-1.095,0.778-2.09,1.36C161.758,26.981,163.857,24.394,167.779,19.695z" fill="#000000" stroke-width="none" opacity="1"/>
          </g>
          <g id="svga-group-glasses-single-move" transform="matrix(1,0,0,1,0,5)">
            <g id="svga-group-glasses-single" transform="matrix(0.8999995000000002,0,0,0.8999995000000002,10.000663406387318,8.59837215424345)">
              <path id="SvgjsPath4309" d="M150.82 85.61c0.02 6.14-1.89 12.16-4.01 14.71 -2.43 2.93-8.12 4.76-14.84 4.76 -5.93 0-11.52-1.45-14.96-3.87 -5.16-3.64-9.63-11.19-11.25-18.06C115.62 75.7 141.43 75.3 150.82 85.61zM49.18 85.61c-0.02 6.14 1.89 12.16 4.01 14.71 2.43 2.93 8.12 4.76 14.84 4.76 5.93 0 11.52-1.45 14.96-3.87 5.16-3.64 9.63-11.19 11.25-18.06C84.38 75.7 58.57 75.3 49.18 85.61z" fill="#ffffff" stroke-width="none" opacity="0.2"/>
              <path id="SvgjsPath4310" d="M105.77 83.14c-0.57-2.43-0.79-4.79-0.55-6.85 0.44-3.77 2.25-6.32 5.37-7.56 1.76-0.7 6.71-1.17 12.31-1.17 4.01 0 17.49 0.3 22.45 4.22 2.98 2.35 4.82 6.18 5.33 11.07 0.1 0.91 0.14 1.83 0.14 2.75C141.43 75.3 115.62 75.7 105.77 83.14zM94.79 76.3c-0.44-3.77-2.25-6.32-5.37-7.56 -1.76-0.7-6.71-1.17-12.31-1.17 -4.01 0-17.49 0.3-22.45 4.22 -2.98 2.35-4.82 6.18-5.33 11.07 -0.1 0.91-0.14 1.83-0.14 2.75 9.39-10.31 35.2-9.91 45.06-2.47C94.81 80.71 95.03 78.36 94.79 76.3z" fill="#ffffff" stroke-width="none" opacity="0.4"/>
              <path id="SvgjsPath4311" d="M154.89 79.22c-0.1-0.36-0.75-0.8-1.44-1.05 -0.47-0.17-1.99-0.27-2.92-0.32 -4.25-11.92-16.29-11.04-42.6-11.11 -0.72-1-0.42-0.72-7.93-0.74 -7.52 0.01-7.21-0.26-7.93 0.74 -26.31 0.07-38.35-0.81-42.6 11.11 -0.93 0.05-2.45 0.15-2.92 0.32 -0.69 0.25-1.34 0.69-1.44 1.05 -0.1 0.36-0.14 1.82-0.06 2.1 0.08 0.28 0.61 0.93 0.61 0.93s0.04-0.04 0.1-0.1c0.17 0.32 0.73 0.91 2.54 1.03 -0.77 7.48 1.61 14.5 4.24 17.67 5.73 6.92 23.35 6.43 30.95 1.07 7.2-5.07 12.9-16.95 12.21-25.22 1.81-1.21 6.94-1.21 8.62 0 -0.69 8.27 5.01 20.15 12.21 25.22 7.6 5.36 25.22 5.85 30.95-1.07 2.63-3.17 5.01-10.19 4.24-17.67 1.81-0.12 2.37-0.71 2.54-1.03 0.07 0.06 0.1 0.1 0.1 0.1s0.53-0.65 0.61-0.93C155.04 81.04 155 79.58 154.89 79.22zM82.69 100.8c-7.64 5.39-24.38 4.92-29.12-0.8 -3.92-4.72-6.89-21.27 1.39-27.82 6.53-5.16 30.21-4.6 34.26-2.98 2.94 1.17 4.64 3.58 5.06 7.15C95.2 84.08 89.56 95.96 82.69 100.8zM95.4 74.74c-0.49-2.14-1.5-3.87-2.95-5.15 0.14-0.53 1.33-1.26 1.56-1.76 2.26-0.01 9.72-0.01 11.98 0 0.23 0.5 1.42 1.23 1.56 1.76 -1.45 1.28-2.46 3.01-2.95 5.15C101.64 73.83 98.23 73.87 95.4 74.74zM146.43 100c-4.74 5.71-21.48 6.18-29.12 0.8 -6.87-4.84-12.5-16.72-11.59-24.44 0.42-3.58 2.12-5.98 5.06-7.15 4.06-1.62 27.73-2.18 34.26 2.98C153.32 78.72 150.35 95.28 146.43 100z" fill="#26120b" stroke-width="none" opacity="1"/>
            </g>
          </g>
        </g>
      </g>
    </g>
    <rect id="SvgjsRect1057" width="200" height="15" x="0" y="185" fill="#ecf0f1" opacity="0.5" style="display: none;"/>
    <text id="SvgjsText1058" font-family="Roboto, Helvetica, Arial, sans-serif" font-size="10px" text-anchor="start" font-weight="400" anchor="start" fill="#333333" x="38.69989776611328" y="182.42827010154724" style="display: none;">
      <tspan id="SvgjsTspan1059" dy="13" x="38.69989776611328">Created on svgAvatars.com</tspan>
    </text>
  </g>
</svg>
