<svg id="Layer_1" enable-background="new 0 0 128 128" height="512" viewBox="0 0 128 128" width="512" xmlns="http://www.w3.org/2000/svg"><path d="m121.768 62.717c-.531-.151-1.085.153-1.238.684l-12.271 42.482c-.304-.065-.613-.115-.928-.149v-4.999c0-15.182-11.293-27.769-25.92-29.819 3.808-1.831 7.045-4.628 9.413-8.17.632-.943 1.188-1.928 1.674-2.944l1.021-1.48c.72-1.047 1.326-2.157 1.84-3.305 2.351-.142 4.164-2.614 4.164-5.752 0-2.154-.855-3.992-2.15-4.982l.585-7.112c.691-8.407-5.844-29.121-26.797-29.121-20.948 0-27.438 21.116-26.787 29.121l.563 7.124c-1.286.993-2.135 2.825-2.135 4.97 0 3.121 1.793 5.582 4.125 5.75.51 1.146 1.111 2.253 1.825 3.297l1.22 1.778c.465.937.985 1.851 1.577 2.727 2.348 3.494 5.562 6.261 9.337 8.08-6.675.902-12.665 3.992-17.213 8.531h-31.16c-1.656 0-3.004 1.348-3.004 3.004v32.306c0 1.656 1.348 3.004 3.004 3.004h14.64c1.224 3.604 4.633 6.208 8.646 6.208h.023 3.857 62.795 3.856.023c5.037 0 9.136-4.098 9.136-9.135 0-3.679-2.191-6.849-5.333-8.296l12.295-42.564c.154-.53-.152-1.085-.683-1.238z" fill="#e6e7e8"/><path d="m73.213 67.616h-.777c-1.694.405-3.452.642-5.27.642-1.842 0-3.636-.225-5.354-.642h-.872c-16.082 0-29.118 13.037-29.118 29.118v22.216h70.509v-22.215c0-16.082-13.037-29.119-29.118-29.119z" fill="#0089ef"/><path d="m86.928 71.047v.01c-1.403 9.729-9.739 17.203-19.848 17.203-10.12 0-18.456-7.484-19.848-17.213 4.088-2.194 8.747-3.427 13.707-3.427h12.274c4.958 0 9.627 1.243 13.715 3.427z" fill="#d4fbff"/><path d="m75.663 66.609v.06l-8.587 5.471-8.577-5.471v-.13c2.665 1.112 5.601 1.723 8.667 1.723 3.006 0 5.872-.581 8.497-1.653z" fill="#fff"/><path d="m71.364 78.358-1.874 4.86h-4.829l-1.874-4.87 4.058-5.881h.461z" fill="#fa759e"/><path d="m67.076 88.257c.956 0 1.891-.083 2.81-.212l-.394-4.833h-4.832l-.394 4.833c.92.13 1.855.212 2.81.212z" fill="#fa759e"/><path d="m80.301 68.489-7.515 11.933-5.711-8.286 7.064-4.499c2.114.07 4.178.361 6.162.852z" fill="#6dc9f7"/><path d="m67.076 72.136-.23.331-5.481 7.955-7.505-11.933c1.974-.491 4.038-.782 6.152-.852z" fill="#6dc9f7"/><path d="m89.81 41.016v4.589c0 .19 0 .371-.01.551 0 .08 0 .15-.01.221-.14 4.368-1.523 8.416-3.797 11.813-2.505 3.747-6.102 6.703-10.33 8.416-2.625 1.072-5.491 1.653-8.496 1.653-3.066 0-6.002-.611-8.667-1.723-4.138-1.713-7.655-4.609-10.12-8.276-2.445-3.617-3.867-7.965-3.867-12.654v-4.699c0-.23 0-.451.01-.681.02-.521.05-1.032.11-1.553 0-.04 0-.08.01-.12.381-3.337 1.503-6.553 3.306-9.408l.361-.571c.461-.521 1.062-.902 1.743-1.082 1.092-.291 2.665-.731 4.859-1.353 2.365-.671 4.899-3.226 6.553-5.16.962-1.132 2.695-1.142 3.727-.08 3.286 3.387 10.009 8.306 21.642 9.017 1.944 3.375 2.976 7.192 2.976 11.1z" fill="#fff"/><path d="m91.147 40.499c-.475 0-.927.142-1.337.392 0 .042.004.084.004.126v4.589c0 1.292-.114 2.557-.322 3.789.491.393 1.05.635 1.654.635 1.864 0 3.376-2.134 3.376-4.766.001-2.631-1.51-4.765-3.375-4.765z" fill="#fff"/><path d="m44.511 45.606v-4.589c0-.042.004-.084.004-.126-.41-.25-.862-.392-1.337-.392-1.864 0-3.376 2.134-3.376 4.766s1.511 4.766 3.376 4.766c.604 0 1.164-.242 1.654-.635-.208-1.233-.321-2.498-.321-3.79z" fill="#fff"/><path d="m55.129 76.428h-46.616c-1.107 0-2.004.897-2.004 2.004v32.306c0 1.107.897 2.004 2.004 2.004h15.39c-.151-.619-.239-1.262-.239-1.927 0-4.493 3.642-8.135 8.135-8.135h3.88c2.35 0 4.255 1.905 4.255 4.255v5.807h15.196c1.107 0 2.004-.897 2.004-2.004v-32.306c-.001-1.107-.898-2.004-2.005-2.004z" fill="#fa759e"/><path d="m55.129 76.428h-46.616c-1.107 0-2.004.897-2.004 2.004v3.006c0-1.107.897-2.004 2.004-2.004h46.617c1.107 0 2.004.897 2.004 2.004v-3.006c-.001-1.107-.898-2.004-2.005-2.004z" fill="#fff"/><path d="m37.97 82.28h13.062v8.115h-13.062z" fill="#ffd7e5"/><path d="m31.798 118.95h3.88c2.35 0 4.255-1.905 4.255-4.255v-7.761c0-2.35-1.905-4.255-4.255-4.255h-3.88c-4.493 0-8.135 3.642-8.135 8.135 0 4.494 3.642 8.136 8.135 8.136z" fill="#fff"/><path d="m102.354 118.95h-3.88c-2.35 0-4.255-1.905-4.255-4.255v-7.761c0-2.35 1.905-4.255 4.255-4.255h3.88c4.493 0 8.135 3.642 8.135 8.135.001 4.494-3.642 8.136-8.135 8.136z" fill="#fff"/><g fill="#3a2c60"><path d="m64.634 117.95h-4.376c-.552 0-1 .448-1 1s.448 1 1 1h4.376c.552 0 1-.448 1-1s-.447-1-1-1z"/><path d="m117.768 58.717c-.531-.151-1.085.153-1.238.684l-12.271 42.482c-.304-.065-.613-.115-.928-.149v-4.999c0-15.187-11.302-27.769-25.935-29.812 3.815-1.831 7.057-4.63 9.428-8.177.632-.943 1.188-1.928 1.674-2.944l1.021-1.48c.72-1.047 1.334-2.155 1.846-3.305 2.348-.146 4.158-2.616 4.158-5.751 0-2.154-.856-3.992-2.15-4.982l.585-7.112c.691-8.408-5.844-29.122-26.797-29.122-20.948 0-27.438 21.116-26.787 29.121l.563 7.124c-1.286.993-2.135 2.825-2.135 4.97 0 3.118 1.79 5.578 4.119 5.749.508 1.147 1.117 2.253 1.832 3.298l1.22 1.778c.465.937.985 1.851 1.577 2.727 2.35 3.497 5.569 6.266 9.349 8.085-6.678.9-12.672 3.986-17.222 8.526h-31.164c-1.656 0-3.004 1.348-3.004 3.004v32.306c0 1.656 1.348 3.004 3.004 3.004h14.64c1.224 3.604 4.633 6.208 8.646 6.208h.023 3.857 21.137c.552 0 1-.448 1-1s-.448-1-1-1h-6.985v-4.208h5.299c1.656 0 3.004-1.348 3.004-3.004v-23.524c2.735 1.303 5.768 2.046 8.946 2.046 9.913 0 18.485-7.072 20.55-16.655 1.835 1.1 3.531 2.406 5.064 3.882-5.127 2.758-8.371 8.105-8.371 14.008v27.456h-16.332c-.553 0-1 .448-1 1s.447 1 1 1h30.483 3.856.023c5.037 0 9.136-4.098 9.136-9.135 0-3.679-2.191-6.849-5.333-8.296l12.295-42.564c.154-.531-.152-1.086-.683-1.239zm-41.187 10.108c.711.085 1.418.195 2.118.333l-5.95 9.448-4.258-6.182 5.925-3.775c.718.031 1.435.09 2.147.174.005.001.011.002.018.002zm-15.18 9.776-5.939-9.444c.691-.136 1.391-.245 2.095-.329.016-.002.033-.004.049-.006.707-.083 1.418-.142 2.133-.173l3.346 2.131 2.576 1.644zm2.721-9.532c.18.023.364.034.545.053.11.011.22.022.33.032 1.421.129 2.865.13 4.286.005.099-.009.198-.016.297-.026.135-.014.272-.02.407-.036l-2.911 1.854-2.378-1.515zm6.119 9.422-1.435 3.722h-3.46l-1.433-3.726 3.163-4.589zm17.135-39.672c-.332-3.044-2.916-5.421-6.046-5.421h-10.085c-1.815 0-3.292 1.477-3.292 3.292v.192h-1.702c-.457-1.991-2.235-3.483-4.362-3.483h-8.893c-3.13 0-5.714 2.377-6.046 5.421l-1.37.619c.016-.217.021-.434.046-.652.002-.022.004-.057.005-.088.001-.011.003-.022.004-.034.363-3.184 1.456-6.292 3.158-8.987l.315-.498c.329-.353.743-.602 1.201-.724 1.096-.292 2.674-.733 4.875-1.357 2.069-.587 4.438-2.428 7.042-5.474.268-.315.646-.496 1.066-.51.43-.019.872.16 1.181.479 3.02 3.111 9.83 8.408 21.751 9.282 1.439 2.649 2.294 5.574 2.519 8.561zm-22.685 8.634c1.045-1.21 1.682-2.781 1.682-4.502v-4.069h1.58v4.069c0 1.72.637 3.292 1.682 4.502-.501.055-.896.464-.896.979v1.51c0 .869-.707 1.576-1.576 1.576s-1.576-.707-1.576-1.576v-1.51c-.001-.515-.395-.924-.896-.979zm-15.779-7.971c0-2.251 1.832-4.083 4.083-4.083h8.893c1.37 0 2.484 1.114 2.484 2.483v5.069c0 2.703-2.199 4.902-4.901 4.902h-5.657c-2.703 0-4.902-2.199-4.902-4.902zm21.041 3.469v-6.261c0-.712.579-1.292 1.292-1.292h10.085c2.252 0 4.084 1.832 4.084 4.083v3.469c0 2.703-2.199 4.902-4.902 4.902h-5.657c-2.703.001-4.902-2.198-4.902-4.901zm20.629 5.952c.008-.055.01-.111.018-.166h-.014c.1-.757.177-1.518.203-2.287.01-.091.012-.177.01-.235.012-.2.013-.399.013-.61v-3.743h.005v-.323c1.396-.341 2.708 1.509 2.708 3.726-.002 2.336-1.444 4.311-2.943 3.638zm-49.78-3.638c0-2.042 1.088-3.766 2.376-3.766.111 0 .222.014.333.041v.478h.001v3.587c0 1.034.079 2.057.21 3.07h-.002c.01.076.013.152.024.229-1.501.667-2.942-1.302-2.942-3.639zm8.406 12.434c-2.418-3.577-3.696-7.759-3.696-12.094v-3.941l1.4-.632v1.92c0 3.806 3.096 6.902 6.902 6.902h5.657c1.543 0 2.965-.515 4.115-1.374v1.463c0 1.972 1.604 3.576 3.576 3.576s3.576-1.604 3.576-3.576v-1.463c1.151.859 2.572 1.374 4.115 1.374h5.657c3.806 0 6.902-3.096 6.902-6.902v-1.922l1.396.63v3.944c0 .17.001.331-.009.491-.001.02-.002.122-.002.142-.005.036-.008.071-.009.106-.13 4.035-1.385 7.938-3.629 11.29-2.426 3.628-5.84 6.41-9.877 8.046-5.181 2.116-11.211 2.098-16.403-.068-3.946-1.634-7.29-4.37-9.671-7.912zm-2.695 14.921c.208.963.48 1.901.815 2.809h-4.701c1.211-1.043 2.511-1.982 3.886-2.809zm-38 39.122c-.554 0-1.004-.45-1.004-1.004v-32.306c0-.554.45-1.004 1.004-1.004h22.308v24.306c-4.579.49-8.158 4.374-8.158 9.081 0 .313.016.622.047.927zm16.15-.927c0-3.935 3.201-7.135 7.135-7.135h3.88c1.795 0 3.255 1.46 3.255 3.255v7.761c0 1.795-1.46 3.255-3.255 3.255h-3.88c-3.934-.001-7.135-3.201-7.135-7.136zm23.168 7.135h-8.059c.716-.898 1.162-2.02 1.162-3.255v-.954h6.897zm8.302-7.212c0 .554-.45 1.004-1.004 1.004h-14.195v-4.807c0-2.897-2.357-5.255-5.255-5.255h-2.858v-24.252h22.309c.554 0 1.004.45 1.004 1.004v32.306zm-1.004-35.31h-5.664c-.502-1.212-.886-2.486-1.128-3.813 1.609-.812 3.306-1.472 5.072-1.965l7.109 11.303c.179.285.49.461.827.468h.02c.329 0 .638-.162.825-.435l.348-.505 1.107 2.877-.286 3.518c-1.844-.376-3.601-1.021-5.225-1.896v-6.549c-.001-1.655-1.348-3.003-3.005-3.003zm10.533 11.776v-.011c-.108-.009-.21-.014-.321-.024l.24-2.95h2.99l.241 2.95c-.096.01-.186.013-.28.021v.005c-.481.037-.964.066-1.453.066-.476-.001-.948-.022-1.417-.057zm5.134-.327-.287-3.52 1.107-2.873.348.505c.187.271.495.433.823.433h.021c.336-.007.646-.183.826-.467l7.118-11.304c1.597.445 3.14 1.021 4.61 1.728v.007c.06.029.12.057.18.084.095.046.187.097.281.144-1.412 7.728-7.503 13.744-15.027 15.263zm15.526 3.618c0-5.353 3.052-10.182 7.827-12.505 4.462 4.979 7.182 11.549 7.182 18.745v4.945h-2.856c-2.897 0-5.255 2.357-5.255 5.255v7.761c0 1.235.446 2.357 1.162 3.255h-8.059v-27.456zm23.168 20.32c0 3.935-3.201 7.135-7.136 7.135h-3.88c-1.795 0-3.255-1.46-3.255-3.255v-7.761c0-1.795 1.46-3.255 3.255-3.255h3.88c3.935.001 7.136 3.202 7.136 7.136z"/><path d="m57.169 41.172c-1.251 0-2.265 1.014-2.265 2.265s1.014 2.265 2.265 2.265 2.265-1.014 2.265-2.265-1.014-2.265-2.265-2.265z"/><path d="m77.156 41.172c-1.251 0-2.265 1.014-2.265 2.265s1.014 2.265 2.265 2.265 2.265-1.014 2.265-2.265c.001-1.251-1.014-2.265-2.265-2.265z"/><path d="m75.433 39.049 4.436.773c.059.01.116.015.173.015.478 0 .899-.342.984-.828.095-.544-.27-1.062-.813-1.157l-4.436-.773c-.552-.089-1.062.27-1.157.813-.095.544.269 1.061.813 1.157z"/><path d="m54.284 39.836c.057 0 .115-.005.173-.015l4.436-.773c.544-.095.908-.613.813-1.157-.095-.543-.61-.901-1.157-.813l-4.436.773c-.544.095-.908.613-.813 1.157.085.486.507.828.984.828z"/><path d="m67.08 61.362c3.36 0 5.186-2.359 5.262-2.459.334-.44.247-1.068-.193-1.401-.442-.334-1.069-.246-1.4.193-.013.017-1.29 1.667-3.668 1.667-2.395 0-3.606-1.583-3.659-1.654-.324-.442-.946-.54-1.392-.22-.448.323-.549.948-.226 1.396.072.101 1.826 2.478 5.276 2.478z"/><path d="m51.032 81.28h-13.062c-.552 0-1 .448-1 1v8.114c0 .552.448 1 1 1h13.062c.552 0 1-.448 1-1v-8.114c0-.552-.448-1-1-1zm-1 8.114h-11.062v-6.114h11.062z"/></g></svg>