<svg id="Capa_1" enable-background="new 0 0 512 512" height="512" viewBox="0 0 512 512" width="512" xmlns="http://www.w3.org/2000/svg"><g clip-rule="evenodd" fill-rule="evenodd"><path d="m10.071 198.836v54.783h61.073 45.39v-70.033h-91.23c-8.362 0-15.233 6.865-15.233 15.25z" fill="#ff7b79"/><path d="m116.534 183.586v70.033h55.47 55.47v-70.033h-83.768z" fill="#ff9c9b"/><path d="m227.474 183.586v70.033h55.47 55.47v-70.033h-34.549z" fill="#ff7b79"/><path d="m338.414 183.586v70.033h45.39 61.073v-54.783c0-8.385-6.842-15.25-15.233-15.25z" fill="#ff9c9b"/><path d="m383.803 253.619v57.118l29.96-14.913 31.113 15.475v-57.68z" fill="#ff9c9b"/><path d="m282.944 253.619v70.033h74.898l25.961-12.915v-57.118h-45.389z" fill="#ff7b79"/><path d="m172.004 253.619v70.033h55.47 55.47v-70.033h-55.47z" fill="#ff9c9b"/><path d="m71.145 253.619v70.033h45.389 55.47v-70.033h-55.47z" fill="#ff7b79"/><path d="m10.071 253.619h61.073v70.033h-61.073z" fill="#ff9c9b"/><path d="m10.071 323.652v70.004h61.074 45.389v-70.004h-45.389z" fill="#ff7b79"/><path d="m116.534 323.652v70.004h55.47 55.47v-70.004h-55.47z" fill="#ff9c9b"/><path d="m227.474 323.652v70.005h55.47 49.838c-4.843-14.519-7.321-29.094-7.18-43.19.113-10.945 2.759-12.155 12.614-17.051l19.626-9.764h-74.898z" fill="#ff7b79"/><path d="m282.944 393.656v70.033h92.975c-10.784-10.805-20.217-23.607-28.298-37.478-6.195-10.664-11.178-21.609-14.839-32.554h-49.838z" fill="#ff7b79"/><path d="m227.474 393.656h-55.47v70.033h110.94v-70.033z" fill="#ff9c9b"/><path d="m10.071 393.656v54.783c0 8.385 6.87 15.25 15.233 15.25h45.84v-70.033z" fill="#ff9c9b"/><path d="m71.145 393.656v70.033h100.859v-70.033h-55.47z" fill="#ff7b79"/><path d="m212.494 23.571c-28.523 98.873-82.388 50.084-82.388 160.015h13.6 83.768 76.391c5.491-29.403 21.625-74.76-15.064-93.133 3.858 30.332-61.439 37.619-42.208-13.9 7.63-20.455-13.826-52.982-34.099-52.982z" fill="#ffcd69"/><path d="m338.216 333.415c-9.855 4.896-12.502 6.106-12.614 17.051-.141 14.097 2.337 28.672 7.18 43.19 3.66 10.945 8.644 21.891 14.839 32.554 8.081 13.872 17.514 26.674 28.298 37.478 8.335 8.357 17.514 15.503 27.482 20.99 9.151 5.036 11.601 5.036 20.724 0 22.864-12.577 41.448-33.849 55.78-58.469 8.954-15.391 15.346-31.288 18.894-47.045 2.14-9.679 3.238-19.302 3.125-28.7-.056-5.909-.845-9.004-3.125-11.339-1.943-1.998-4.956-3.461-9.489-5.712l-44.432-22.116-31.114-15.475-29.959 14.913-25.961 12.915z" fill="#a0e5a5"/></g><path d="m494.105 324.552-39.158-19.484v-106.232c0-13.962-11.351-25.321-25.304-25.321h-113.39c.013-.061.026-.119.039-.18 6.315-28.845 15.857-72.437-22.983-91.888-3.325-1.665-7.299-1.363-10.332.788-3.035 2.15-4.637 5.798-4.168 9.488.677 5.322-3.041 8.493-6.279 10.215-5.717 3.042-12.985 2.983-16.542-.136-3.865-3.387-3.85-11.307.04-21.729 4.837-12.965 1.499-30.154-8.711-44.86-9.44-13.596-22.457-21.713-34.823-21.713-4.486 0-8.432 2.968-9.676 7.278-5.104 17.683-11.396 31.657-19.236 42.719-3.217 4.538-2.145 10.824 2.393 14.041 4.54 3.216 10.825 2.144 14.04-2.393 7.69-10.85 14.029-23.828 19.26-39.467 3.955 2.198 8.051 6.061 11.497 11.023 6.306 9.083 8.871 19.665 6.386 26.329-9.558 25.602-.622 38.507 5.555 43.921 9.893 8.67 26.044 9.811 39.277 2.771 5.692-3.028 10.095-7.147 13-11.977 10.863 13.261 7.511 34.405 1.626 61.282-.334 1.527-.658 3.015-.975 4.487h-155.291c.541-15.459 2.383-27.795 5.595-37.493 1.75-5.28-1.113-10.978-6.393-12.727-5.278-1.748-10.978 1.113-12.727 6.394-3.863 11.661-6.041 26.076-6.625 43.827h-94.896c-13.953 0-25.304 11.359-25.304 25.321v249.603c0 13.963 11.351 25.322 25.304 25.322h346.506c8.418 7.962 17.337 14.572 26.735 19.742 6.054 3.332 10.645 4.997 15.232 4.997s9.168-1.666 15.201-4.996c22.847-12.567 42.91-33.503 59.629-62.226 15.569-26.746 23.655-54.726 23.386-80.889-.125-16.227-6.547-20.204-17.888-25.837zm-75.856-37.745c-2.825-1.406-6.147-1.406-8.972 0l-15.402 7.664v-30.781h40.93v31.355zm-62.777 26.773h-62.457v-49.89h80.717v40.804zm-193.54-49.89v49.891h-80.716v-49.891zm55.471-70.033v49.89h-90.797v-49.89zm86.431 0c.014 0 .028.002.042.002.015 0 .029-.002.044-.002h24.422v49.89h-90.796v-49.89zm-121.759 119.923v-49.89h90.797v49.891h-90.797zm-55.47 70.005v-49.862h90.797v49.862zm-65.532-70.005h-40.93v-49.89h40.931v49.89zm-40.93 20.143h86.32v49.862h-86.32zm141.789 70.004v49.891h-80.716v-49.891zm20.143 0h90.797v49.891h-90.797zm110.94 0h32.69c3.527 9.246 7.928 18.47 13.213 27.55 4.7 8.074 9.674 15.51 14.89 22.34h-60.793zm26.436-20.142h-81.906v-49.862h82.569c-2.919 3.702-4.501 8.703-4.583 16.64-.111 10.838 1.231 21.985 3.92 33.222zm115.354-184.749v44.711h-86.32v-49.89h81.158c2.798 0 5.162 2.372 5.162 5.179zm-409.501-5.179h81.158v49.89h-86.32v-44.711c.001-2.807 2.364-5.179 5.162-5.179zm-5.161 254.782v-44.711h40.931v49.891h-35.77c-2.798-.001-5.161-2.373-5.161-5.18zm451.057-27.295c-14.857 25.522-32.329 43.929-51.944 54.718-4.057 2.24-5.188 2.511-5.481 2.523-.299-.012-1.435-.282-5.52-2.529h-.001c-8.696-4.784-16.971-11.076-24.786-18.816-.236-.268-.486-.521-.749-.763-9.513-9.572-18.341-21.297-26.395-35.132-5.868-10.082-10.522-20.309-13.923-30.476-.004-.013-.01-.026-.014-.04-4.554-13.627-6.848-27.146-6.716-40.059.031-3.007.291-4.165.4-4.522.842-.741 3.757-2.189 6.344-3.473l46.163-22.971c.009-.005.018-.009.027-.014l25.155-12.517 71.383 35.52c2.574 1.279 5.477 2.72 6.319 3.46.109.36.364 1.518.388 4.517.234 22.56-6.907 46.964-20.65 70.574z"/><path d="m440.146 363.719-36.053 36.948-13.523-12.65c-4.061-3.8-10.435-3.587-14.234.475-3.8 4.062-3.588 10.435.474 14.235l20.724 19.386c1.941 1.815 4.411 2.716 6.879 2.716 2.62 0 5.238-1.017 7.209-3.037l42.94-44.006c3.885-3.981 3.807-10.357-.175-14.242-3.98-3.884-10.357-3.807-14.241.175z"/><path d="m160.889 109.254c2.586 0 5.173-.987 7.142-2.957 3.933-3.933 3.933-10.31 0-14.244-3.932-3.933-10.31-3.933-14.242 0l-.028.028c-3.933 3.933-3.919 10.296.014 14.229 1.963 1.964 4.537 2.944 7.114 2.944z"/></svg>